<svg width="25" height="24" viewBox="0 0 25 24" fill="none" xmlns="http://www.w3.org/2000/svg">
<path d="M0.5 12C0.5 5.3726 5.8726 0 12.5 0C19.1274 0 24.5 5.3726 24.5 12C24.5 18.6274 19.1274 24 12.5 24C5.8726 24 0.5 18.6274 0.5 12Z" fill="#9D4EDD"/>
<path d="M12.5 7.70664C13.8144 7.70664 14.7011 8.27445 15.2067 8.7489L17.1822 6.82C15.9689 5.69219 14.39 5 12.5 5C9.76225 5 7.3978 6.57109 6.2467 8.85774L8.50999 10.6155C9.0778 8.92774 10.6489 7.70664 12.5 7.70664Z" fill="#FAFBFC"/>
<path d="M19.2199 12.1557C19.2199 11.5802 19.1733 11.1602 19.0721 10.7246H12.4999V13.3223H16.3577C16.2799 13.9679 15.8599 14.9402 14.9266 15.5934L17.1355 17.3046C18.4577 16.0834 19.2199 14.2868 19.2199 12.1557Z" fill="#FAFBFC"/>
<path d="M8.51774 13.3846C8.36994 12.9491 8.28439 12.4824 8.28439 12.0002C8.28439 11.5179 8.36994 11.0513 8.50994 10.6157L6.24658 8.85791C5.7722 9.80681 5.49994 10.8724 5.49994 12.0002C5.49994 13.1279 5.7722 14.1935 6.24658 15.1424L8.51774 13.3846Z" fill="#FAFBFC"/>
<path d="M12.4998 19.0003C14.3898 19.0003 15.9764 18.3781 17.1353 17.3048L14.9264 15.5937C14.3353 16.0059 13.5419 16.2937 12.4998 16.2937C10.6487 16.2937 9.07757 15.0725 8.51757 13.3848L6.25421 15.1425C7.40531 17.4292 9.76195 19.0003 12.4998 19.0003Z" fill="#FAFBFC"/>
</svg>
