<svg width="25" height="24" viewBox="0 0 25 24" fill="none" xmlns="http://www.w3.org/2000/svg">
<path d="M0.5 12C0.5 5.3726 5.8726 0 12.5 0C19.1274 0 24.5 5.3726 24.5 12C24.5 18.6274 19.1274 24 12.5 24C5.8726 24 0.5 18.6274 0.5 12Z" fill="#9D4EDD"/>
<mask id="mask0_49_87" style="mask-type:alpha" maskUnits="userSpaceOnUse" x="0" y="0" width="25" height="24">
<path fill-rule="evenodd" clip-rule="evenodd" d="M0.5 12C0.5 5.3726 5.8726 0 12.5 0C19.1274 0 24.5 5.3726 24.5 12C24.5 18.6274 19.1274 24 12.5 24C5.8726 24 0.5 18.6274 0.5 12Z" fill="#B4B2C7"/>
</mask>
<g mask="url(#mask0_49_87)">
<path fill-rule="evenodd" clip-rule="evenodd" d="M12.5005 5C10.5995 5 10.3609 5.00831 9.61421 5.04227C8.86899 5.0764 8.36035 5.19436 7.91525 5.3675C7.45484 5.54627 7.06432 5.78542 6.67522 6.17468C6.28585 6.56372 6.04665 6.9543 5.86727 7.41454C5.69375 7.85975 5.57563 8.36856 5.5421 9.11351C5.50869 9.86015 5.49994 10.0989 5.49994 12C5.49994 13.9011 5.50842 14.1389 5.54221 14.8856C5.5765 15.6308 5.69446 16.1395 5.86744 16.5846C6.04637 17.0449 6.28552 17.4355 6.67478 17.8246C7.06372 18.214 7.45424 18.4537 7.91437 18.6325C8.35974 18.8056 8.86855 18.9236 9.61361 18.9577C10.3603 18.9917 10.5987 19 12.4997 19C14.4009 19 14.6387 18.9917 15.3854 18.9577C16.1306 18.9236 16.6399 18.8056 17.0853 18.6325C17.5455 18.4537 17.9354 18.214 18.3244 17.8246C18.7138 17.4355 18.953 17.0449 19.1323 16.5847C19.3044 16.1395 19.4226 15.6307 19.4576 14.8857C19.4911 14.1391 19.4998 13.9011 19.4998 12C19.4998 10.0989 19.4911 9.86031 19.4576 9.11367C19.4226 8.36845 19.3044 7.85975 19.1323 7.41471C18.953 6.9543 18.7138 6.56372 18.3244 6.17468C17.935 5.78531 17.5456 5.5461 17.0848 5.3675C16.6385 5.19436 16.1296 5.0764 15.3844 5.04227C14.6377 5.00831 14.4 5 12.4984 5H12.5005ZM12.2671 6.26136H12.2672L12.5005 6.26141C14.3695 6.26141 14.5911 6.26814 15.3291 6.30166C16.0116 6.33289 16.3821 6.44691 16.6288 6.54272C16.9555 6.6696 17.1884 6.8213 17.4332 7.0663C17.6782 7.31129 17.8299 7.54464 17.9571 7.87129C18.0529 8.11776 18.167 8.48816 18.1981 9.17065C18.2316 9.9086 18.239 10.1302 18.239 11.9984C18.239 13.8665 18.2316 14.0882 18.1981 14.8261C18.1669 15.5086 18.0529 15.879 17.9571 16.1255C17.8302 16.4521 17.6782 16.6848 17.4332 16.9296C17.1882 17.1746 16.9556 17.3263 16.6288 17.4532C16.3823 17.5494 16.0116 17.6632 15.3291 17.6943C14.5912 17.7279 14.3695 17.7352 12.5005 17.7352C10.6314 17.7352 10.4099 17.7279 9.67196 17.6943C8.98947 17.6628 8.61902 17.5488 8.37216 17.453C8.04546 17.3261 7.81211 17.1744 7.56711 16.9294C7.32211 16.6844 7.17046 16.4517 7.04332 16.1249C6.94751 15.8785 6.83332 15.508 6.80226 14.8255C6.76868 14.0876 6.76201 13.8659 6.76201 11.9967C6.76201 10.1273 6.76868 9.90685 6.80226 9.1689C6.83343 8.48641 6.94751 8.11601 7.04332 7.86927C7.17019 7.54257 7.32211 7.30927 7.56711 7.06427C7.81211 6.81927 8.04546 6.66757 8.37216 6.54043C8.61891 6.44418 8.98947 6.33043 9.67196 6.29904C10.3177 6.26989 10.568 6.26114 11.8726 6.25966V6.26141C11.9945 6.26125 12.1256 6.2613 12.2671 6.26136ZM15.3971 8.26345C15.3971 7.79954 15.7733 7.42373 16.2371 7.42373V7.42346C16.7008 7.42346 17.0771 7.7997 17.0771 8.26345C17.0771 8.7272 16.7008 9.10344 16.2371 9.10344C15.7733 9.10344 15.3971 8.7272 15.3971 8.26345ZM12.5004 8.4052C10.5152 8.40525 8.90574 10.0148 8.90574 12C8.90574 13.9852 10.5153 15.5941 12.5005 15.5941C14.4858 15.5941 16.0947 13.9852 16.0947 12C16.0947 10.0147 14.4856 8.4052 12.5004 8.4052ZM14.8339 12C14.8339 10.7112 13.7891 9.66667 12.5005 9.66667C11.2118 9.66667 10.1672 10.7112 10.1672 12C10.1672 13.2886 11.2118 14.3333 12.5005 14.3333C13.7891 14.3333 14.8339 13.2886 14.8339 12Z" fill="#FAFBFC"/>
</g>
</svg>
