<svg width="25" height="24" viewBox="0 0 25 24" fill="none" xmlns="http://www.w3.org/2000/svg">
<path d="M0.5 12C0.5 5.3726 5.8726 0 12.5 0C19.1274 0 24.5 5.3726 24.5 12C24.5 18.6274 19.1274 24 12.5 24C5.8726 24 0.5 18.6274 0.5 12Z" fill="#9D4EDD"/>
<path d="M9.69998 8.8V17.5C9.69998 17.665 9.56498 17.8 9.39998 17.8H6.39998C6.23498 17.8 6.09998 17.665 6.09998 17.5V8.8C6.09998 8.635 6.23498 8.5 6.39998 8.5H9.39998C9.56498 8.5 9.69998 8.635 9.69998 8.8Z" fill="white"/>
<path d="M9.69703 6.36683C9.69703 7.26083 8.94103 7.89683 7.90003 7.89683C6.87703 7.89683 6.10303 7.24583 6.10303 6.38483C6.10303 5.52683 6.85903 4.90283 7.90003 4.90283C8.90803 4.90283 9.64903 5.50583 9.69703 6.36683Z" fill="white"/>
<path d="M19.9 12.4V17.5C19.9 17.665 19.765 17.8 19.6 17.8H16.9C16.7344 17.8 16.6 17.6656 16.6 17.5V12.85C16.6 12.139 16.054 11.56 15.358 11.506C15.322 11.5 15.286 11.5 15.25 11.5C15.214 11.5 15.178 11.5 15.142 11.506C14.446 11.56 13.9 12.139 13.9 12.85C13.9 12.85 13.9 12.889 13.9 12.925C13.9 12.961 13.9 13 13.9 13V17.5C13.9 17.6656 13.7656 17.8 13.6 17.8H10.9C10.735 17.8 10.6 17.665 10.6 17.5V8.8C10.6 8.635 10.735 8.5 10.9 8.5H13.9C14.065 8.5 14.2 8.635 14.2 8.8V9.247C14.683 8.908 15.481 8.5 16.537 8.5C18.859 8.5 19.9 10.459 19.9 12.4Z" fill="white"/>
</svg>
