<svg width="25" height="24" viewBox="0 0 25 24" fill="none" xmlns="http://www.w3.org/2000/svg">
<g clip-path="url(#clip0_49_129)">
<path d="M24.5 12C24.5 18.6274 19.1274 24 12.5 24C5.87258 24 0.5 18.6274 0.5 12C0.5 5.37258 5.87258 0 12.5 0C19.1274 0 24.5 5.37258 24.5 12Z" fill="#9D4EDD"/>
</g>
<path fill-rule="evenodd" clip-rule="evenodd" d="M17.7896 6.26075C16.3262 4.80399 14.3817 4 12.3107 4C8.04203 4 4.56583 7.45791 4.56583 11.7072C4.5633 13.0657 4.92028 14.3914 5.59881 15.5608L4.5 19.5556L8.60663 18.4819C9.73582 19.0969 11.0119 19.4195 12.3082 19.422H12.3107C16.5794 19.422 20.053 15.9641 20.0556 11.7122C20.0556 9.65313 19.2504 7.71751 17.7896 6.26075ZM12.3107 18.119H12.3082C11.1536 18.119 10.0194 17.809 9.03197 17.2268L8.79651 17.0881L6.35836 17.7233L7.00904 15.3592L6.85713 15.1172C6.21152 14.0965 5.87225 12.917 5.87225 11.7072C5.87225 8.17621 8.76107 5.30302 12.3132 5.30302C14.0323 5.30302 15.6476 5.97091 16.8629 7.18067C18.0782 8.39296 18.7466 10.0009 18.7466 11.7122C18.7466 15.2458 15.8578 18.119 12.3107 18.119ZM15.8401 13.3202C15.6476 13.2245 14.6957 12.7582 14.5184 12.6952C14.3412 12.6297 14.2121 12.5994 14.083 12.791C13.9538 12.985 13.5842 13.4185 13.4703 13.5471C13.3589 13.6731 13.2449 13.6907 13.0525 13.5949C12.8576 13.4992 12.2347 13.295 11.4954 12.6372C10.9207 12.1281 10.5308 11.4955 10.4194 11.304C10.3055 11.1099 10.4068 11.0066 10.503 10.9108C10.5916 10.8251 10.6979 10.6865 10.7941 10.5731C10.8903 10.4622 10.9232 10.3815 10.9891 10.253C11.0524 10.1244 11.0195 10.011 10.9714 9.91524C10.9232 9.81947 10.5359 8.8693 10.3738 8.48369C10.2169 8.10816 10.0574 8.16109 9.93837 8.15352C9.82697 8.14848 9.69784 8.14848 9.56872 8.14848C9.4396 8.14848 9.22946 8.19637 9.05223 8.39044C8.875 8.58198 8.37623 9.04825 8.37623 9.9959C8.37623 10.9435 9.06995 11.8609 9.16616 11.9895C9.26237 12.1155 10.5308 14.0612 12.4727 14.8954C12.9335 15.0945 13.293 15.213 13.5741 15.3012C14.0374 15.4474 14.4602 15.4272 14.7944 15.3793C15.1666 15.3239 15.9388 14.9131 16.1008 14.4619C16.2603 14.0133 16.2603 13.6277 16.2122 13.5471C16.1641 13.4664 16.035 13.4185 15.8401 13.3202Z" fill="white"/>
<defs>
<clipPath id="clip0_49_129">
<rect width="24" height="24" fill="white" transform="translate(0.5)"/>
</clipPath>
</defs>
</svg>
