<?xml version="1.0" standalone="no"?>
<!DOCTYPE svg PUBLIC "-//W3C//DTD SVG 20010904//EN"
 "http://www.w3.org/TR/2001/REC-SVG-20010904/DTD/svg10.dtd">
<svg version="1.0" xmlns="http://www.w3.org/2000/svg"
 width="272.000000pt" height="272.000000pt" viewBox="0 0 272.000000 272.000000"
 preserveAspectRatio="xMidYMid meet">
<metadata>
Created by potrace 1.14, written by Peter Selinger 2001-2017
</metadata>
<g transform="translate(0.000000,272.000000) scale(0.100000,-0.100000)"
fill="#000000" stroke="none">
<path d="M1245 2705 c-59 -18 -119 -50 -342 -181 -109 -64 -213 -125 -231
-136 -320 -182 -346 -200 -361 -254 -12 -45 -3 -80 30 -113 26 -27 488 -300
540 -319 31 -12 78 -9 110 8 13 7 188 107 388 222 360 208 422 239 451 230 23
-7 40 -33 40 -61 -1 -34 -45 -66 -225 -167 -77 -43 -156 -90 -176 -105 l-35
-28 0 -212 1 -213 89 -53 c49 -29 90 -53 92 -53 2 0 29 -16 60 -34 32 -19 61
-33 65 -31 3 3 6 99 5 214 l-1 209 30 20 c45 29 231 138 395 232 80 46 160 94
179 108 60 45 78 127 40 189 -20 33 -89 76 -462 293 l-109 63 -66 -32 c-58
-29 -465 -262 -617 -354 -190 -114 -253 -128 -269 -56 -8 32 16 59 95 106 35
21 73 43 84 50 11 7 27 15 35 19 8 4 111 67 230 138 118 72 236 142 263 156
26 14 57 32 69 41 l21 17 -39 25 c-93 62 -281 93 -379 62z"/>
<path d="M2445 1882 c-22 -9 -78 -38 -125 -65 -47 -27 -103 -59 -125 -72 -92
-52 -212 -123 -247 -145 -72 -47 -72 -51 -68 -808 1 -154 -9 -231 -32 -259
-15 -18 -52 -16 -78 5 -21 17 -21 22 -20 256 0 131 2 242 5 246 8 13 -377 235
-394 226 -30 -15 -291 -169 -291 -172 0 -6 102 -69 221 -137 63 -37 123 -74
131 -84 14 -16 16 -57 14 -313 -1 -333 4 -405 35 -460 17 -29 31 -41 63 -50
47 -13 91 0 221 67 140 72 412 231 422 246 4 7 8 230 9 497 0 494 2 518 38
542 6 4 24 8 39 8 23 0 31 -7 44 -37 14 -33 16 -97 17 -475 0 -498 -7 -465 87
-402 113 75 181 175 205 303 17 86 19 974 3 1020 -22 64 -102 93 -174 63z"/>
<path d="M195 1871 c-39 -18 -72 -60 -80 -102 -2 -11 -7 -136 -11 -277 -3
-141 -7 -276 -9 -299 -1 -23 2 -49 9 -57 13 -17 283 -186 297 -186 5 0 9 -4 9
-10 0 -5 4 -10 10 -10 5 0 59 -31 121 -70 61 -39 113 -70 115 -70 3 0 138 -85
234 -148 30 -20 57 -38 59 -39 13 -8 9 -73 -5 -87 -33 -34 -55 -23 -374 169
-254 153 -432 256 -463 268 -16 6 -18 1 -16 -61 5 -144 46 -250 133 -336 44
-43 208 -152 371 -246 17 -10 136 -82 265 -160 209 -128 240 -143 281 -144
109 -2 127 67 132 499 1 178 -1 226 -13 250 -19 37 -138 117 -508 339 -312
188 -302 181 -327 219 -18 27 -18 29 2 55 38 51 68 44 216 -52 45 -29 127 -77
181 -106 l100 -53 65 34 c77 39 249 137 282 160 21 15 22 22 25 187 2 95 1
172 -1 172 -10 0 -145 -70 -227 -118 -123 -73 -145 -78 -205 -49 -47 23 -296
176 -320 197 -7 5 -14 10 -16 10 -2 0 -44 24 -93 53 -87 52 -162 87 -187 87
-6 0 -30 -9 -52 -19z"/>
</g>
</svg>
