<?xml version="1.0" encoding="UTF-8"?>
<!DOCTYPE svg PUBLIC "-//W3C//DTD SVG 1.1//EN" "http://www.w3.org/Graphics/SVG/1.1/DTD/svg11.dtd">
<!-- Creator: CorelDRAW -->
<svg xmlns="http://www.w3.org/2000/svg" xml:space="preserve" width="126mm" height="25mm" version="1.1" style="shape-rendering:geometricPrecision; text-rendering:geometricPrecision; image-rendering:optimizeQuality; fill-rule:evenodd; clip-rule:evenodd"
viewBox="0 0 12600 2500"
 xmlns:xlink="http://www.w3.org/1999/xlink"
 xmlns:xodm="http://www.corel.com/coreldraw/odm/2003">
 <defs>
  <style type="text/css">
   <![CDATA[
    .fil1 {fill:#7768AE}
    .fil2 {fill:#7B2CBF}
    .fil3 {fill:#9D4EDD}
    .fil0 {fill:#10002B;fill-rule:nonzero}
   ]]>
  </style>
 </defs>
 <g id="Layer_x0020_1">
  <metadata id="CorelCorpID_0Corel-Layer"/>
  <path class="fil0" d="M2555.08 1617.73l65.83 -170.74c91.69,47.03 185.8,70.55 282.36,70.55 60.47,0 106.31,-9.88 137.53,-29.63 31.2,-19.76 46.81,-46.57 46.81,-80.43 0,-10.35 -1.47,-19.76 -4.39,-28.23 -2.92,-8.46 -8.78,-16.46 -17.55,-23.99 -8.78,-7.52 -16.83,-13.87 -24.15,-19.05 -7.31,-5.17 -19.75,-11.28 -37.3,-18.34 -17.55,-7.06 -31.46,-12.46 -41.7,-16.23 -10.24,-3.76 -28.03,-9.88 -53.39,-18.34 -25.36,-8.47 -44.39,-15.05 -57.07,-19.76 -45.83,-15.99 -84.12,-31.75 -114.84,-47.27 -30.72,-15.52 -59.74,-34.34 -87.05,-56.44 -27.31,-22.11 -47.55,-48.22 -60.71,-78.32 -13.17,-30.1 -19.75,-64.91 -19.75,-104.42 0,-90.31 34.13,-161.1 102.41,-212.37 68.27,-51.28 158.49,-76.91 270.65,-76.91 71.2,0 136.79,9.17 196.78,27.52 59.98,18.34 108.98,41.62 147.02,69.85l-90.7 153.81c-35.11,-23.52 -74.86,-42.1 -119.23,-55.74 -44.39,-13.64 -87.54,-20.46 -129.48,-20.46 -47.79,0 -85.34,9.4 -112.65,28.22 -27.31,18.81 -40.96,44.68 -40.96,77.61 0,12.23 1.7,23.05 5.12,32.46 3.41,9.4 9.99,18.11 19.75,26.1 9.74,8 19.01,14.82 27.79,20.46 8.79,5.65 22.19,12 40.23,19.05 18.05,7.06 33.17,12.7 45.36,16.94 12.19,4.23 30.97,10.58 56.33,19.05 25.36,8.46 45.83,15.52 61.44,21.16 91.68,31.05 158.74,66.09 201.16,105.13 42.43,39.04 63.64,94.31 63.64,165.81 0,98.77 -36.57,175.91 -109.72,231.42 -73.15,55.5 -169.71,83.25 -289.68,83.25 -60.47,0 -122.89,-7.76 -187.26,-23.28 -64.37,-15.52 -121.91,-38.34 -172.63,-68.44zm1547.85 -117.12l-399.4 0 -68.77 191.91 -223.84 0 383.32 -987.78 216.52 0 395.01 987.78 -232.62 0 -70.22 -191.91zm-58.52 -165.1l-143.37 -395.11 -138.99 395.11 282.36 0zm1348.87 357.01l-181.4 0 -283.68 -366.74 -202.04 -261.2 0 627.94 -215.06 0 0 -987.78 182.87 0 481.33 633.59 0 -633.59 217.98 0 0 987.78zm999.23 -809.98l-310.15 0 0 809.98 -213.59 0 0 -809.98 -311.63 0 0 -177.8 835.37 0 0 177.8zm629.1 618.07l-399.4 0 -68.77 191.91 -223.84 0 383.32 -987.78 216.52 0 395.01 987.78 -232.62 0 -70.22 -191.91zm-58.52 -165.1l-143.38 -395.11 -138.99 395.11 282.37 0zm1986.74 -630.77l0 987.78 -206.28 0 0 -605.37 -279.43 577.15 -121.43 0 -275.04 -572.91 0 601.13 -206.28 0 0 -987.78 204.81 0 345.27 712.61 332.1 -712.61 206.28 0zm787.1 795.87l-399.39 0 -68.77 191.91 -223.84 0 383.31 -987.78 216.52 0 395.01 987.78 -232.62 0 -70.22 -191.91zm-58.51 -165.1l-143.38 -395.11 -138.99 395.11 282.37 0zm1065.05 357.01l-207.75 -334.43 -23.41 1.41 -152.14 0 0 333.02 -215.06 0 0 -987.78 383.3 0c140.44,0 243.83,27.28 310.15,81.85 66.33,54.56 99.49,129.82 99.49,225.77 0,148.64 -65.83,250.71 -197.5,306.22l241.39 373.94 -238.47 0zm-383.3 -510.82l168.24 0c56.57,0 100.7,-13.88 132.4,-41.63 31.7,-27.75 47.54,-66.09 47.54,-115.01 0,-47.97 -15.11,-83.96 -45.34,-107.94 -30.24,-23.99 -79.49,-35.99 -147.76,-35.99l-155.08 0 0 300.57zm999.23 510.82l-213.6 0 0 -987.78 213.6 0 0 987.78zm854.39 -191.91l-399.4 0 -68.77 191.91 -223.84 0 383.32 -987.78 216.52 0 395.01 987.78 -232.62 0 -70.22 -191.91zm-58.52 -165.1l-143.37 -395.11 -138.99 395.11 282.36 0z"/>
  <g id="_1838276481296">
   <path class="fil1" d="M1441.8 289c-43.74,9.36 -294.92,162.52 -353.73,196.01 -62.97,35.86 -115.79,67.45 -176.79,101.91 -28.68,16.21 -140.89,94.29 -181.82,81.48 -22.72,-7.11 -74.43,-55.78 32.55,-112.03 112.96,-59.41 462.88,-283.94 555.36,-326.42 -7.9,-14.86 1.29,-13.09 -36.47,-33.61 -11.22,-6.09 -21.94,-11.1 -37.33,-18.67 -83.86,-41.22 -208.26,-45.42 -283.61,-10.23 -89.95,42.01 -194.85,107.89 -283.83,160.16 -97.44,57.23 -190.41,110.09 -287.05,165.89 -47.28,27.29 -105.59,49.89 -120.34,102.09 -21.17,74.97 38.86,108.71 82.66,133.44 100.21,56.58 189.63,109.96 287.12,165.97 45.26,26.01 94.1,66.95 160.65,32.11l565.03 -324.71c39.82,-20.79 121.56,-67.39 117.39,40.27 -15.25,37.2 -327.68,181.49 -340.09,212.1l1.07 331.94c86.58,47.46 153.52,92.29 242.7,139.37l0.05 -336.18c28.53,-24.92 36.28,-25.13 68.96,-42.87 26.86,-14.58 40.05,-23.22 65.03,-37.59l35.59 -22.15c13.72,-8.82 15.87,-10.34 28.88,-17.8 21.73,-12.45 41.43,-24.5 65.72,-37.65 48.2,-26.11 84.38,-48.4 135.79,-78.78 49.44,-29.21 93.15,-41.21 110.76,-95.31 23.92,-73.45 -20.61,-115.93 -61.86,-139.85l-392.39 -228.89z"/>
   <path class="fil2" d="M1725 1972.92c5.94,-171.16 -5.44,-652.21 4.68,-760.58 3.67,-39.37 39.99,-74.94 81.74,-43.9 35.05,26.07 20.61,223.89 20.77,282.46l2.38 451.11c62.02,-6.95 146.39,-92.32 172.92,-131.98 45.5,-68.03 62.7,-131.03 62.94,-239.65l1.02 -635.88c0.09,-112.46 -90.5,-138.93 -176.46,-87.55 -65.64,39.22 -125.93,71.74 -191.31,109.92 -41.22,24.07 -178.67,97.62 -192.82,118.33 -36.02,52.68 -22.44,378.21 -22.79,487.23 -0.42,134.95 33.41,423.19 -103.26,301.69l5.18 -385.22c-87.12,-49.88 -181.76,-112.31 -269.79,-157.32 -30.86,-15.77 -35.56,-9.15 -68.99,8.99l-195.82 113.33c42.44,40.84 290.14,160.04 290.13,182.12l-0.81 349.73c-0.07,123.52 -24.49,289.12 114.05,285.55 54.49,-1.4 414.04,-215.27 466.24,-248.38z"/>
   <path class="fil3" d="M98.89 1507.02c-8.88,191.12 47.61,277.62 149.88,357.54 24.02,18.78 49.1,31.37 77.84,48.94 27.36,16.73 52.67,33.56 78.48,49.13l466.84 280.36c171.32,69.19 140.44,-217.85 143.09,-339.05 7.31,-334.63 62.93,-200.23 -461.54,-534.74 -94.61,-60.34 -230.78,-113.19 -200.96,-173.15l10.33 -13.27c44.17,-43.64 102.49,10.22 185.28,65.69 1.42,0.95 3.31,2.29 4.74,3.21l193.6 105.28c6.2,-2.88 281.22,-148.97 286.43,-161.53l5.32 -271.12c-54.24,19.51 -104.97,54.38 -164.84,86.1 -165.26,87.56 -90.03,99.29 -318.51,-39.75 -45.05,-27.41 -275.21,-173.75 -306.19,-179.03 -79.53,-13.55 -126.76,42.5 -134.89,107.39l-11.8 472.39c80,59.24 657.97,397.19 670.75,421.55 17.51,136.05 -113.86,43.01 -152.84,19 -106.23,-65.44 -494.92,-299.53 -521.01,-304.94z"/>
  </g>
 </g>
</svg>
