<?xml version="1.0" encoding="UTF-8"?>
<!DOCTYPE svg PUBLIC "-//W3C//DTD SVG 1.1//EN" "http://www.w3.org/Graphics/SVG/1.1/DTD/svg11.dtd">
<!-- Creator: CorelDRAW -->
<svg xmlns="http://www.w3.org/2000/svg" xml:space="preserve" width="108mm" height="49mm" version="1.1" style="shape-rendering:geometricPrecision; text-rendering:geometricPrecision; image-rendering:optimizeQuality; fill-rule:evenodd; clip-rule:evenodd"
viewBox="0 0 10800 4900"
 xmlns:xlink="http://www.w3.org/1999/xlink"
 xmlns:xodm="http://www.corel.com/coreldraw/odm/2003">
 <defs>
  <style type="text/css">
   <![CDATA[
    .fil1 {fill:#7768AE}
    .fil2 {fill:#7B2CBF}
    .fil3 {fill:#9D4EDD}
    .fil0 {fill:#FEFEFE;fill-rule:nonzero}
   ]]>
  </style>
 </defs>
 <g id="Layer_x0020_1">
  <metadata id="CorelCorpID_0Corel-Layer"/>
  <g id="_1839009432448">
   <path class="fil0" d="M417.5 3869.57l65.83 -170.74c91.69,47.03 185.8,70.55 282.36,70.55 60.47,0 106.31,-9.88 137.53,-29.63 31.2,-19.76 46.81,-46.57 46.81,-80.43 0,-10.35 -1.47,-19.76 -4.39,-28.23 -2.92,-8.46 -8.78,-16.46 -17.55,-23.99 -8.78,-7.52 -16.83,-13.87 -24.15,-19.05 -7.31,-5.17 -19.75,-11.28 -37.3,-18.34 -17.55,-7.06 -31.46,-12.46 -41.7,-16.23 -10.24,-3.76 -28.03,-9.88 -53.39,-18.34 -25.36,-8.47 -44.39,-15.05 -57.07,-19.76 -45.83,-15.99 -84.12,-31.75 -114.84,-47.27 -30.72,-15.52 -59.74,-34.34 -87.05,-56.44 -27.31,-22.11 -47.55,-48.22 -60.71,-78.32 -13.17,-30.1 -19.75,-64.91 -19.75,-104.42 0,-90.31 34.13,-161.1 102.41,-212.37 68.27,-51.28 158.49,-76.91 270.65,-76.91 71.2,0 136.79,9.17 196.78,27.52 59.98,18.34 108.98,41.62 147.02,69.85l-90.7 153.81c-35.11,-23.52 -74.86,-42.1 -119.23,-55.74 -44.39,-13.64 -87.54,-20.46 -129.48,-20.46 -47.79,0 -85.34,9.4 -112.65,28.22 -27.31,18.81 -40.96,44.68 -40.96,77.61 0,12.23 1.7,23.05 5.12,32.46 3.41,9.4 9.99,18.11 19.75,26.1 9.74,8 19.01,14.82 27.79,20.46 8.79,5.65 22.19,12 40.23,19.05 18.05,7.06 33.17,12.7 45.36,16.94 12.19,4.23 30.97,10.58 56.33,19.05 25.36,8.46 45.83,15.52 61.44,21.16 91.68,31.05 158.74,66.09 201.16,105.13 42.43,39.04 63.64,94.31 63.64,165.81 0,98.77 -36.57,175.91 -109.72,231.42 -73.15,55.5 -169.71,83.25 -289.68,83.25 -60.47,0 -122.89,-7.76 -187.26,-23.28 -64.37,-15.52 -121.91,-38.34 -172.63,-68.44zm1547.85 -117.12l-399.4 0 -68.77 191.91 -223.84 0 383.32 -987.78 216.52 0 395.01 987.78 -232.62 0 -70.22 -191.91zm-58.52 -165.1l-143.37 -395.11 -138.99 395.11 282.36 0zm1348.87 357.01l-181.4 0 -485.72 -627.94 0 627.94 -215.06 0 0 -987.78 182.87 0 481.33 633.59 0 -633.59 217.98 0 0 987.78zm999.23 -809.98l-310.15 0 0 809.98 -213.59 0 0 -809.98 -311.63 0 0 -177.8 835.37 0 0 177.8zm629.1 618.07l-399.4 0 -68.77 191.91 -223.84 0 383.32 -987.78 216.52 0 395.01 987.78 -232.62 0 -70.22 -191.91zm-58.52 -165.1l-143.38 -395.11 -138.99 395.11 282.37 0zm1986.74 -630.77l0 987.78 -206.28 0 0 -605.37 -279.43 577.15 -121.43 0 -275.04 -572.91 0 601.13 -206.28 0 0 -987.78 204.81 0 345.27 712.61 332.1 -712.61 206.28 0zm787.1 795.87l-399.39 0 -68.77 191.91 -223.84 0 383.31 -987.78 216.52 0 395.01 987.78 -232.62 0 -70.22 -191.91zm-58.51 -165.1l-143.38 -395.11 -138.99 395.11 282.37 0zm1065.05 357.01l-207.75 -334.43 -23.41 1.41 -152.14 0 0 333.02 -215.06 0 0 -987.78 383.3 0c140.44,0 243.83,27.28 310.15,81.85 66.33,54.56 99.49,129.82 99.49,225.77 0,148.64 -65.83,250.71 -197.5,306.22l241.39 373.94 -238.47 0zm-383.3 -510.82l168.24 0c56.57,0 100.7,-13.88 132.4,-41.63 31.7,-27.75 47.54,-66.09 47.54,-115.01 0,-47.97 -15.11,-83.96 -45.34,-107.94 -30.24,-23.99 -79.49,-35.99 -147.76,-35.99l-155.08 0 0 300.57zm999.23 510.82l-213.6 0 0 -987.78 213.6 0 0 987.78zm854.39 -191.91l-399.4 0 -68.77 191.91 -223.84 0 383.32 -987.78 216.52 0 395.01 987.78 -232.62 0 -70.22 -191.91zm-58.52 -165.1l-143.37 -395.11 -138.99 395.11 282.36 0z"/>
   <g>
    <path class="fil1" d="M5787.76 227.49c-47.7,10.21 -321.69,177.27 -385.84,213.81 -68.68,39.11 -126.29,73.57 -192.82,111.16 -31.29,17.68 -153.68,102.84 -198.33,88.87 -24.78,-7.75 -81.19,-60.84 35.5,-122.2 123.21,-64.8 504.9,-309.71 605.77,-356.04 -8.62,-16.21 1.41,-14.29 -39.78,-36.66 -12.23,-6.65 -23.93,-12.11 -40.72,-20.37 -91.47,-44.96 -227.16,-49.54 -309.35,-11.16 -98.11,45.83 -212.54,117.69 -309.59,174.69 -106.28,62.43 -207.7,120.09 -313.11,180.95 -51.56,29.77 -115.17,54.42 -131.25,111.37 -23.1,81.77 42.38,118.57 90.15,145.54 109.31,61.72 206.85,119.94 313.18,181.04 49.38,28.37 102.64,73.03 175.24,35.02l616.31 -354.19c43.44,-22.67 132.59,-73.5 128.05,43.93 -16.64,40.58 -357.43,197.97 -370.96,231.36l1.16 362.07c94.44,51.77 167.47,100.67 264.74,152.01l0.05 -366.69c31.12,-27.17 39.57,-27.41 75.22,-46.76 29.3,-15.9 43.69,-25.33 70.93,-41l38.82 -24.16c14.97,-9.62 17.31,-11.28 31.51,-19.42 23.69,-13.58 45.19,-26.72 71.68,-41.07 52.58,-28.48 92.04,-52.79 148.11,-85.92 53.93,-31.87 101.61,-44.95 120.82,-103.96 26.08,-80.13 -22.48,-126.46 -67.47,-152.55l-428.02 -249.67z"/>
    <path class="fil2" d="M6096.68 2064.26c6.47,-186.69 -5.94,-711.4 5.09,-829.61 4.01,-42.95 43.63,-81.75 89.16,-47.89 38.24,28.43 22.48,244.21 22.66,308.09l2.59 492.06c67.65,-7.57 159.69,-100.7 188.62,-143.95 49.63,-74.21 68.39,-142.93 68.65,-261.41l1.12 -693.59c0.1,-122.67 -98.71,-151.54 -192.48,-95.5 -71.6,42.78 -137.36,78.25 -208.68,119.9 -44.95,26.25 -194.88,106.47 -210.32,129.06 -39.28,57.47 -24.47,412.54 -24.85,531.46 -0.46,147.19 36.43,461.6 -112.64,329.07l5.65 -420.19c-95.02,-54.39 -198.25,-122.5 -294.27,-171.59 -33.67,-17.21 -38.8,-9.98 -75.26,9.81l-213.59 123.61c46.29,44.55 316.47,174.57 316.46,198.65l-0.88 381.48c-0.07,134.73 -26.72,315.36 124.4,311.47 59.44,-1.53 451.63,-234.82 508.57,-270.93z"/>
    <path class="fil3" d="M4322.96 1556.07c-9.69,208.47 51.93,302.82 163.49,389.99 26.2,20.48 53.55,34.22 84.91,53.39 29.84,18.24 57.45,36.6 85.6,53.59l509.21 305.8c186.87,75.47 153.19,-237.62 156.08,-369.83 7.97,-364.99 68.64,-218.39 -503.44,-583.27 -103.19,-65.82 -251.73,-123.47 -219.19,-188.87l11.26 -14.47c48.18,-47.6 111.79,11.15 202.1,71.65 1.55,1.04 3.61,2.5 5.17,3.5l211.18 114.84c6.75,-3.14 306.74,-162.49 312.42,-176.19l5.8 -295.72c-59.16,21.27 -114.5,59.31 -179.79,93.9 -180.26,95.52 -98.21,108.31 -347.43,-43.35 -49.14,-29.9 -300.18,-189.52 -333.98,-195.28 -86.75,-14.78 -138.27,46.36 -147.14,117.14l-12.87 515.26c87.26,64.62 717.7,433.24 731.64,459.82 19.09,148.4 -124.2,46.91 -166.72,20.72 -115.87,-71.38 -539.84,-326.72 -568.3,-332.62z"/>
   </g>
   <g>
    <path class="fil0" d="M2283.18 4679.97l17.73 23.02c-33.43,28.39 -75.21,42.59 -125.22,42.59 -18.52,0 -35.9,-2.2 -52.22,-6.52 -16.24,-4.41 -31.5,-11.47 -45.72,-21.26 -14.22,-9.7 -26.42,-21.78 -36.51,-36.25 -10.09,-14.46 -18.17,-32.45 -24.22,-53.88 -5.97,-21.43 -9.04,-45.42 -9.21,-71.97 -0.18,-26.55 2.63,-50.62 8.51,-72.23 5.79,-21.61 13.78,-39.87 24.05,-54.59 10.17,-14.82 22.46,-27.35 36.85,-37.4 14.39,-10.05 29.84,-17.37 46.43,-21.96 16.49,-4.59 34.13,-6.88 52.82,-6.88 47.3,0 85.74,10.94 115.4,32.9l-16.67 23.19c-28.79,-18.78 -62.57,-28.13 -101.28,-28.13 -18.33,0 -35.45,3.26 -51.33,9.79 -15.89,6.52 -30.1,16.31 -42.65,29.19 -12.64,12.97 -22.55,30.25 -29.83,51.86 -7.29,21.61 -10.98,46.39 -10.98,74.26 0,28.22 3.69,53.09 10.98,74.44 7.28,21.34 17.28,38.27 30.1,50.71 12.72,12.52 27.11,21.78 42.99,27.78 15.98,6.09 33.35,8.91 52.22,8.55 42.21,-0.52 78.1,-12.87 107.76,-37.21zm109.95 -177.01l1.59 0c5.79,-15.43 14.74,-27.25 26.67,-35.28 12.03,-7.94 25.89,-11.99 41.69,-11.99 12.19,0 21.06,2.03 26.77,5.99l-5.19 27.87c-9.21,-2.38 -18.51,-3.61 -27.73,-3.61 -28.95,0 -50.1,20.02 -63.27,59.97l0 193.5 -29.57 0 0 -277.29 22.65 0 6.39 40.84zm169.45 -134.85c6.5,0 12.03,2.03 16.59,6.17 4.57,4.15 6.85,10.23 6.85,18.08 0,7.94 -2.28,13.94 -6.85,17.99 -4.56,4.06 -10.09,6.09 -16.59,6.09 -6.31,0 -11.75,-2.03 -16.23,-6.09 -4.38,-4.05 -6.66,-10.05 -6.66,-17.99 0,-7.85 2.28,-13.93 6.66,-18.08 4.48,-4.14 9.92,-6.17 16.23,-6.17zm14.93 371.3l-29.31 0 0 -277.29 29.31 0 0 277.29zm292.3 -186.8l0 142.09c0,15.52 6.06,23.28 17.99,23.28l7.99 -0.53 -4.39 20.37c-2.54,2.12 -7.37,3.18 -14.4,3.18 -10.08,0 -17.81,-2.47 -23.25,-7.41 -5.44,-4.94 -9.39,-13.41 -11.93,-25.4 -10.62,13.4 -23.17,23.02 -37.65,28.75 -14.48,5.82 -31.59,8.64 -51.33,8.64 -30.37,0 -54.33,-6.43 -71.96,-19.31 -17.64,-12.97 -26.51,-32.9 -26.51,-59.71 0,-11.38 2.02,-21.52 5.88,-30.51 3.95,-8.91 9.31,-16.32 15.97,-22.23 6.68,-5.82 14.75,-10.76 24.05,-14.73 9.31,-3.97 19.22,-6.79 29.66,-8.38 10.53,-1.67 21.58,-2.47 33.44,-2.47 11.85,0 24.12,0.53 36.76,1.59 12.73,0.97 22.47,2.03 29.31,3.09l10.01 1.5 0 -44.63c0,-24.34 -5.97,-41.45 -17.99,-51.42 -11.94,-10.05 -29.22,-14.99 -51.6,-14.99 -18.08,0 -33.7,2.38 -46.95,7.23 -13.33,4.76 -26.15,12.08 -38.7,21.96l-15.18 -20.72c29.31,-24.08 63.18,-36.16 101.53,-36.16 35.01,0 60.29,7.49 75.91,22.49 15.53,14.99 23.34,39.77 23.34,74.43zm-30.36 122.95l0 -52.66c-27.73,-4.67 -52.21,-6.96 -73.45,-6.96 -53.36,0 -80.04,16.67 -80.04,50.09 0,9.62 1.84,17.91 5.54,24.78 3.68,6.88 8.86,12.26 15.35,16.14 6.5,3.88 13.6,6.71 21.32,8.47 7.73,1.68 16.15,2.56 25.45,2.56 19.05,0 35.98,-3.62 50.9,-10.85 14.92,-7.23 26.6,-17.73 34.93,-31.57zm235.8 70.02l-8.78 13.5c11.67,-0.71 21.51,2.64 29.49,10.05 7.99,7.41 11.94,16.49 11.94,27.34 0,14.03 -5.27,24.61 -15.81,31.84 -10.52,7.23 -24.56,11.73 -42.02,13.41l-6.68 -18.88c12.81,-1.85 22.38,-4.76 28.53,-8.73 6.14,-3.97 9.21,-9.88 9.21,-17.64 0,-4.58 -1.58,-8.46 -4.74,-11.46 -3.16,-3 -7.11,-4.5 -11.94,-4.5 -3.95,0 -7.28,0.7 -10,2.03l-14.65 -12.35 15.62 -25.84c-33.35,-4.5 -60.47,-19.4 -81.08,-44.72 -20.63,-25.31 -30.99,-58.82 -30.99,-100.54 0,-22.58 3.6,-43.04 10.8,-61.47 7.19,-18.43 16.84,-33.51 29.04,-45.24 12.2,-11.73 26.16,-20.73 41.95,-27.08 15.71,-6.44 32.38,-9.61 49.85,-9.61 38.7,0 71.16,11.29 97.23,33.86l-17.82 21.96c-12.46,-9.61 -24.4,-16.75 -35.8,-21.34 -11.41,-4.5 -25.89,-6.79 -43.35,-6.79 -29.84,0 -53.97,10.05 -72.49,30.16 -18.51,20.2 -27.82,48.69 -27.82,85.55 0,37.04 9.74,66.15 29.06,87.31 19.39,21.26 43.7,31.84 72.83,31.84 29.75,0 57.83,-10.49 84.07,-31.57l17.19 20.99c-10.96,10.32 -25,19.23 -42.21,26.72 -17.11,7.5 -36.85,11.2 -59.32,11.2l-1.31 0zm316.53 -377.47l16.93 11.11c-8.59,25.31 -22.9,38.01 -42.91,38.01 -7.54,0 -16.76,-3.17 -27.64,-9.61 -10.88,-6.35 -19.56,-9.52 -26.15,-9.52 -7.01,0 -12.64,1.67 -16.93,5.11 -4.3,3.53 -8.25,8.64 -11.86,15.52l-17.19 -8.73c4.47,-12.96 10.88,-22.49 19.3,-28.75 8.34,-6.17 17.21,-9.26 26.42,-9.26 7.72,0 17.28,3.17 28.7,9.44 11.4,6.26 19.83,9.43 25.35,9.43 10.27,0 18.96,-7.58 25.98,-22.75zm49.05 184.5l0 142.09c0,15.52 6.06,23.28 17.99,23.28l7.99 -0.53 -4.38 20.37c-2.55,2.12 -7.38,3.18 -14.4,3.18 -10.09,0 -17.81,-2.47 -23.26,-7.41 -5.44,-4.94 -9.39,-13.41 -11.93,-25.4 -10.61,13.4 -23.17,23.02 -37.65,28.75 -14.47,5.82 -31.59,8.64 -51.33,8.64 -30.37,0 -54.33,-6.43 -71.96,-19.31 -17.64,-12.97 -26.5,-32.9 -26.5,-59.71 0,-11.38 2.02,-21.52 5.88,-30.51 3.95,-8.91 9.3,-16.32 15.97,-22.23 6.67,-5.82 14.74,-10.76 24.04,-14.73 9.31,-3.97 19.22,-6.79 29.67,-8.38 10.52,-1.67 21.58,-2.47 33.43,-2.47 11.85,0 24.13,0.53 36.76,1.59 12.73,0.97 22.47,2.03 29.32,3.09l10.01 1.5 0 -44.63c0,-24.34 -5.97,-41.45 -17.99,-51.42 -11.94,-10.05 -29.23,-14.99 -51.6,-14.99 -18.08,0 -33.71,2.38 -46.96,7.23 -13.33,4.76 -26.15,12.08 -38.69,21.96l-15.19 -20.72c29.31,-24.08 63.18,-36.16 101.53,-36.16 35.02,0 60.29,7.49 75.91,22.49 15.53,14.99 23.34,39.77 23.34,74.43zm-30.35 122.95l0 -52.66c-27.73,-4.67 -52.22,-6.96 -73.46,-6.96 -53.36,0 -80.03,16.67 -80.03,50.09 0,9.62 1.84,17.91 5.53,24.78 3.68,6.88 8.86,12.26 15.35,16.14 6.5,3.88 13.6,6.71 21.32,8.47 7.74,1.68 16.15,2.56 25.46,2.56 19.04,0 35.98,-3.62 50.89,-10.85 14.93,-7.23 26.6,-17.73 34.94,-31.57zm234.74 -219.87c13.95,0 27.11,1.76 39.75,5.2 12.63,3.44 24.48,9 35.72,16.67 11.23,7.67 20.88,17.02 29.04,28.13 8.16,11.12 14.66,24.79 19.4,40.93 4.82,16.22 7.19,34.22 7.19,54.06 0,19.75 -2.37,37.75 -7.19,53.97 -4.74,16.23 -11.24,29.81 -19.4,40.93 -8.16,11.11 -17.81,20.55 -29.04,28.22 -11.24,7.67 -23.09,13.23 -35.72,16.67 -12.64,3.44 -25.8,5.11 -39.75,5.11 -17.47,0 -33.87,-2.82 -49.24,-8.46 -15.35,-5.74 -29.13,-14.29 -41.5,-25.58 -12.37,-11.38 -22.12,-26.63 -29.31,-45.68 -7.19,-18.97 -10.8,-40.75 -10.8,-65.18 0,-24.52 3.61,-46.21 10.8,-65.27 7.19,-19.05 16.94,-34.21 29.31,-45.59 12.37,-11.38 26.15,-19.93 41.5,-25.58 15.37,-5.73 31.77,-8.55 49.24,-8.55zm0 27.69c-30.1,0 -54.23,10.41 -72.22,31.22 -17.99,20.9 -27.03,49.57 -27.03,86.08 0,36.51 9.04,65.26 27.03,86.17 17.99,20.9 42.12,31.39 72.22,31.39 30.36,0 54.49,-10.58 72.48,-31.66 18.08,-21.08 27.03,-49.74 27.03,-85.9 0,-36.16 -8.95,-64.82 -27.03,-85.81 -17.99,-20.99 -42.12,-31.49 -72.48,-31.49zm365.58 -114.48l104.35 0c39.31,0 69.23,9.44 89.86,28.4 20.7,18.96 30.97,44.72 30.97,77.26 0,16.05 -2.55,30.96 -7.72,44.8 -5.09,13.94 -12.55,26.11 -22.29,36.6 -9.83,10.5 -22.38,18.79 -37.82,24.79 -15.45,6.08 -32.91,9.08 -52.48,9.08l-73.71 0 0 149.58 -31.16 0 0 -370.51zm31.16 27.61l0 165.1 69.59 0c29.66,0 52.47,-7.59 68.27,-22.67 15.88,-15.17 23.78,-36.6 23.78,-64.38 0,-27.08 -7.81,-46.83 -23.34,-59.27 -15.62,-12.52 -38.53,-18.78 -68.71,-18.78l-69.59 0zm286.34 106.45l1.58 0c5.79,-15.43 14.75,-27.25 26.68,-35.28 12.03,-7.94 25.89,-11.99 41.69,-11.99 12.19,0 21.05,2.03 26.76,5.99l-5.18 27.87c-9.22,-2.38 -18.52,-3.61 -27.73,-3.61 -28.96,0 -50.11,20.02 -63.28,59.97l0 193.5 -29.57 0 0 -277.29 22.65 0 6.4 40.84zm266.86 -47.27c13.95,0 27.11,1.76 39.75,5.2 12.63,3.44 24.48,9 35.72,16.67 11.23,7.67 20.88,17.02 29.04,28.13 8.16,11.12 14.66,24.79 19.4,40.93 4.82,16.22 7.19,34.22 7.19,54.06 0,19.75 -2.37,37.75 -7.19,53.97 -4.74,16.23 -11.24,29.81 -19.4,40.93 -8.16,11.11 -17.81,20.55 -29.04,28.22 -11.24,7.67 -23.09,13.23 -35.72,16.67 -12.64,3.44 -25.8,5.11 -39.75,5.11 -17.46,0 -33.87,-2.82 -49.24,-8.46 -15.35,-5.74 -29.13,-14.29 -41.5,-25.58 -12.37,-11.38 -22.12,-26.63 -29.31,-45.68 -7.19,-18.97 -10.8,-40.75 -10.8,-65.18 0,-24.52 3.61,-46.21 10.8,-65.27 7.19,-19.05 16.94,-34.21 29.31,-45.59 12.37,-11.38 26.15,-19.93 41.5,-25.58 15.37,-5.73 31.78,-8.55 49.24,-8.55zm0 27.69c-30.1,0 -54.23,10.41 -72.22,31.22 -17.99,20.9 -27.03,49.57 -27.03,86.08 0,36.51 9.04,65.26 27.03,86.17 17.99,20.9 42.12,31.39 72.22,31.39 30.37,0 54.49,-10.58 72.48,-31.66 18.08,-21.08 27.03,-49.74 27.03,-85.9 0,-36.16 -8.95,-64.82 -27.03,-85.81 -17.99,-20.99 -42.11,-31.49 -72.48,-31.49zm223.95 -21.26l0 -54.76c0,-25.32 6.67,-43.66 20.01,-55.13 13.34,-11.46 31.41,-17.19 53.97,-17.19 13.6,0 26.32,1.67 38.35,4.93l-6.15 26.55c-8.42,-2.38 -17.81,-3.61 -28.08,-3.61 -31.68,0 -47.56,14.19 -47.56,42.42l0 56.79 72.22 0 0 26.11 -72.22 0 0 251.18 -30.54 0 0 -251.18 -42.73 0 0 -26.11 42.73 0zm175.06 -94.01c6.5,0 12.03,2.03 16.59,6.17 4.57,4.15 6.85,10.23 6.85,18.08 0,7.94 -2.28,13.94 -6.85,17.99 -4.56,4.06 -10.09,6.09 -16.59,6.09 -6.31,0 -11.75,-2.03 -16.22,-6.09 -4.39,-4.05 -6.67,-10.05 -6.67,-17.99 0,-7.85 2.28,-13.93 6.67,-18.08 4.47,-4.14 9.91,-6.17 16.22,-6.17zm14.93 371.3l-29.31 0 0 -277.29 29.31 0 0 277.29zm75.37 -24.25l13.07 -26.64c9.58,9.09 21.51,16.32 35.73,21.7 14.21,5.29 27.91,8.02 41.15,8.02 23.25,0 41.16,-4.94 53.62,-14.73 12.38,-9.87 18.61,-22.13 18.61,-36.95 0,-3.62 -0.36,-6.97 -1.06,-9.97 -0.62,-2.99 -1.93,-5.82 -3.68,-8.55 -1.85,-2.65 -3.51,-4.94 -5,-6.97 -1.59,-1.94 -4.13,-4.05 -7.73,-6.17 -3.6,-2.12 -6.49,-3.88 -8.6,-5.03 -2.19,-1.23 -5.79,-2.82 -10.97,-4.76 -5.09,-2.03 -8.95,-3.44 -11.41,-4.41 -2.46,-0.97 -6.93,-2.56 -13.33,-4.67 -6.5,-2.12 -11.15,-3.71 -14.04,-4.77 -11.67,-4.14 -20.89,-7.67 -27.82,-10.49 -6.85,-2.82 -14.04,-6.53 -21.67,-11.12 -7.65,-4.58 -13.44,-9.34 -17.39,-14.28 -3.95,-5.03 -7.19,-11.2 -9.91,-18.61 -2.63,-7.41 -3.95,-15.88 -3.95,-25.31 0,-23.11 9.04,-41.54 27.12,-55.21 18.08,-13.67 40.71,-20.55 68,-20.55 17.47,0 34.14,2.64 50.02,8.02 15.8,5.38 29.14,12.26 39.93,20.64l-15.09 23.55c-26.24,-16.41 -51.42,-24.52 -75.38,-24.52 -19.4,0 -34.93,4.32 -46.78,13.14 -11.84,8.82 -17.72,20.11 -17.72,33.87 0,6.35 1.31,12.17 3.95,17.46 2.63,5.2 5.7,9.53 9.13,12.79 3.42,3.26 8.59,6.53 15.44,9.79 6.84,3.26 12.55,5.73 17.2,7.32 4.65,1.67 11.32,3.88 20.09,6.61 25.54,8.12 43.09,14.64 52.66,19.67 24.57,12.7 37.65,30.78 39.4,54.24 0.09,2.03 0.18,4.15 0.18,6.17 0,24.17 -8.96,43.66 -26.86,58.65 -17.9,15 -43.17,22.49 -75.91,22.49 -15.97,0 -32.28,-2.64 -48.87,-8.11 -16.59,-5.47 -30.72,-12.88 -42.13,-22.31zm246.85 0l13.08 -26.64c9.57,9.09 21.5,16.32 35.72,21.7 14.21,5.29 27.91,8.02 41.15,8.02 23.25,0 41.16,-4.94 53.62,-14.73 12.38,-9.87 18.61,-22.13 18.61,-36.95 0,-3.62 -0.36,-6.97 -1.06,-9.97 -0.61,-2.99 -1.93,-5.82 -3.68,-8.55 -1.85,-2.65 -3.51,-4.94 -5,-6.97 -1.59,-1.94 -4.13,-4.05 -7.73,-6.17 -3.6,-2.12 -6.49,-3.88 -8.6,-5.03 -2.19,-1.23 -5.79,-2.82 -10.97,-4.76 -5.09,-2.03 -8.95,-3.44 -11.41,-4.41 -2.46,-0.97 -6.93,-2.56 -13.33,-4.67 -6.5,-2.12 -11.15,-3.71 -14.04,-4.77 -11.67,-4.14 -20.89,-7.67 -27.82,-10.49 -6.85,-2.82 -14.04,-6.53 -21.67,-11.12 -7.65,-4.58 -13.44,-9.34 -17.39,-14.28 -3.95,-5.03 -7.19,-11.2 -9.91,-18.61 -2.63,-7.41 -3.95,-15.88 -3.95,-25.31 0,-23.11 9.04,-41.54 27.12,-55.21 18.08,-13.67 40.71,-20.55 68.01,-20.55 17.46,0 34.13,2.64 50.01,8.02 15.8,5.38 29.14,12.26 39.93,20.64l-15.09 23.55c-26.24,-16.41 -51.42,-24.52 -75.38,-24.52 -19.39,0 -34.93,4.32 -46.78,13.14 -11.84,8.82 -17.72,20.11 -17.72,33.87 0,6.35 1.32,12.17 3.95,17.46 2.63,5.2 5.7,9.53 9.13,12.79 3.42,3.26 8.59,6.53 15.44,9.79 6.84,3.26 12.55,5.73 17.2,7.32 4.65,1.67 11.33,3.88 20.09,6.61 25.54,8.12 43.09,14.64 52.66,19.67 24.57,12.7 37.65,30.78 39.4,54.24 0.09,2.03 0.18,4.15 0.18,6.17 0,24.17 -8.96,43.66 -26.86,58.65 -17.9,15 -43.17,22.49 -75.91,22.49 -15.97,0 -32.28,-2.64 -48.87,-8.11 -16.59,-5.47 -30.72,-12.88 -42.13,-22.31zm281.78 -347.05c6.49,0 12.03,2.03 16.58,6.17 4.57,4.15 6.85,10.23 6.85,18.08 0,7.94 -2.28,13.94 -6.85,17.99 -4.55,4.06 -10.09,6.09 -16.58,6.09 -6.32,0 -11.75,-2.03 -16.23,-6.09 -4.39,-4.05 -6.67,-10.05 -6.67,-17.99 0,-7.85 2.28,-13.93 6.67,-18.08 4.48,-4.14 9.91,-6.17 16.23,-6.17zm14.92 371.3l-29.31 0 0 -277.29 29.31 0 0 277.29zm207.71 -283.72c13.95,0 27.11,1.76 39.75,5.2 12.64,3.44 24.49,9 35.72,16.67 11.23,7.67 20.88,17.02 29.04,28.13 8.16,11.12 14.66,24.79 19.4,40.93 4.82,16.22 7.19,34.22 7.19,54.06 0,19.75 -2.37,37.75 -7.19,53.97 -4.74,16.23 -11.24,29.81 -19.4,40.93 -8.16,11.11 -17.81,20.55 -29.04,28.22 -11.23,7.67 -23.08,13.23 -35.72,16.67 -12.64,3.44 -25.8,5.11 -39.75,5.11 -17.46,0 -33.87,-2.82 -49.23,-8.46 -15.36,-5.74 -29.14,-14.29 -41.51,-25.58 -12.37,-11.38 -22.11,-26.63 -29.31,-45.68 -7.19,-18.97 -10.79,-40.75 -10.79,-65.18 0,-24.52 3.6,-46.21 10.79,-65.27 7.2,-19.05 16.94,-34.21 29.31,-45.59 12.37,-11.38 26.15,-19.93 41.51,-25.58 15.36,-5.73 31.77,-8.55 49.23,-8.55zm0 27.69c-30.1,0 -54.23,10.41 -72.22,31.22 -17.99,20.9 -27.03,49.57 -27.03,86.08 0,36.51 9.04,65.26 27.03,86.17 17.99,20.9 42.12,31.39 72.22,31.39 30.37,0 54.49,-10.58 72.48,-31.66 18.08,-21.08 27.03,-49.74 27.03,-85.9 0,-36.16 -8.95,-64.82 -27.03,-85.81 -17.99,-20.99 -42.11,-31.49 -72.48,-31.49zm234.75 22.23l0.96 0c13.78,-16.23 27.99,-28.58 42.74,-37.14 14.74,-8.55 33.16,-12.78 55.28,-12.78 28.61,0 50.73,7.67 66.43,23.02 15.71,15.34 23.52,37.83 23.52,67.46l0 193.24 -30.63 0 0 -185.56c0,-26.11 -5.17,-44.45 -15.53,-54.86 -10.36,-10.41 -25.45,-15.61 -45.1,-15.61 -19.75,0 -37.3,4.59 -52.84,13.93 -15.53,9.27 -29.66,23.73 -42.29,43.4l0 198.7 -29.57 0 0 -277.29 22.37 0 4.66 43.49zm480.97 47l0 142.09c0,15.52 6.06,23.28 17.99,23.28l7.99 -0.53 -4.38 20.37c-2.55,2.12 -7.38,3.18 -14.4,3.18 -10.09,0 -17.81,-2.47 -23.25,-7.41 -5.45,-4.94 -9.4,-13.41 -11.93,-25.4 -10.62,13.4 -23.18,23.02 -37.66,28.75 -14.47,5.82 -31.59,8.64 -51.33,8.64 -30.37,0 -54.33,-6.43 -71.96,-19.31 -17.64,-12.97 -26.5,-32.9 -26.5,-59.71 0,-11.38 2.02,-21.52 5.88,-30.51 3.95,-8.91 9.3,-16.32 15.97,-22.23 6.67,-5.82 14.74,-10.76 24.05,-14.73 9.3,-3.97 19.21,-6.79 29.66,-8.38 10.52,-1.67 21.58,-2.47 33.43,-2.47 11.85,0 24.13,0.53 36.76,1.59 12.73,0.97 22.47,2.03 29.32,3.09l10.01 1.5 0 -44.63c0,-24.34 -5.97,-41.45 -17.99,-51.42 -11.94,-10.05 -29.23,-14.99 -51.6,-14.99 -18.08,0 -33.7,2.38 -46.96,7.23 -13.33,4.76 -26.15,12.08 -38.69,21.96l-15.19 -20.72c29.32,-24.08 63.19,-36.16 101.53,-36.16 35.02,0 60.29,7.49 75.91,22.49 15.53,14.99 23.34,39.77 23.34,74.43zm-30.35 122.95l0 -52.66c-27.73,-4.67 -52.22,-6.96 -73.45,-6.96 -53.37,0 -80.04,16.67 -80.04,50.09 0,9.62 1.84,17.91 5.53,24.78 3.68,6.88 8.87,12.26 15.35,16.14 6.5,3.88 13.6,6.71 21.33,8.47 7.73,1.68 16.14,2.56 25.45,2.56 19.04,0 35.98,-3.62 50.89,-10.85 14.93,-7.23 26.6,-17.73 34.94,-31.57zm153.04 63.85l-30.63 0 0 -397.94 30.63 0 0 397.94zm470.45 0l-21.07 0 -6.41 -32.81 -1.57 0c-10.1,11.03 -22.73,20.29 -38,27.78 -15.27,7.5 -31.06,11.2 -47.3,11.2 -12.2,0 -23.96,-1.5 -35.27,-4.58 -11.33,-3.18 -22.3,-8.38 -32.92,-15.7 -10.61,-7.32 -19.83,-16.41 -27.73,-27.25 -7.89,-10.85 -14.21,-24.52 -19.04,-41.1 -4.83,-16.49 -7.2,-35.02 -7.2,-55.57 0,-23.54 3.34,-44.8 9.92,-63.67 6.58,-18.88 15.54,-34.13 26.77,-45.86 11.14,-11.73 23.87,-20.64 38,-26.81 14.13,-6.27 29.13,-9.35 44.83,-9.35 37.22,0 66,10.67 86.45,32.01l0 -146.23 30.54 0 0 397.94zm-30.54 -64.29l0 -154.52c-23.7,-24.87 -50.9,-37.22 -81.79,-37.22 -11.85,0 -23.08,2.29 -33.79,6.79 -10.71,4.59 -20.53,11.47 -29.48,20.55 -8.87,9.17 -15.97,21.52 -21.32,37.13 -5.27,15.52 -7.99,33.43 -7.99,53.53 0,19.67 2.72,37.22 7.99,52.66 5.35,15.43 12.45,27.6 21.5,36.69 8.94,8.99 18.77,15.87 29.39,20.55 10.62,4.58 21.68,6.96 33.17,6.96 33.09,0 60.55,-14.37 82.32,-43.12zm329.77 10.05l18.52 19.84c-14.57,12.97 -30.88,22.93 -48.96,29.99 -18.08,7.06 -39.93,10.58 -65.46,10.58 -13.35,0 -26.16,-1.76 -38.44,-5.38 -12.2,-3.61 -23.78,-9.26 -34.58,-16.93 -10.79,-7.67 -20.19,-17.02 -28.08,-28.05 -7.99,-11.02 -14.31,-24.43 -18.78,-40.3 -4.56,-15.88 -6.85,-33.34 -6.85,-52.48 0,-46.48 11.41,-82.55 34.23,-108.21 22.73,-25.67 53.09,-38.54 91,-38.54 19.4,0 36.86,3.79 52.39,11.29 15.62,7.49 28.26,17.55 38,30.16 9.65,12.7 17.02,26.99 22.11,42.77 5,15.88 7.55,32.46 7.55,49.92 0,9.97 -0.53,18.88 -1.58,26.55l-211.31 0c6.67,67.73 39.84,101.6 99.51,101.6 35.45,0 65.73,-10.94 90.73,-32.81zm-191.47 -95.87l186.12 0c-1.4,-31.57 -10.27,-57.06 -26.5,-76.46 -16.32,-19.49 -37.82,-29.2 -64.49,-29.2 -28.35,0 -51.08,9.35 -68.28,27.96 -17.28,18.7 -26.24,44.63 -26.85,77.7zm436.22 122.68l13.07 -25.58c15.27,9.35 32.39,16.59 51.16,21.88 18.87,5.2 36.86,7.85 54.06,7.85 32.21,0 56.08,-6.35 71.69,-19.23 15.62,-12.79 23.43,-29.63 23.43,-50.54 0,-9.79 -2.1,-18.6 -6.31,-26.45 -4.21,-7.85 -10.88,-15 -19.92,-21.61 -9.13,-6.53 -18.69,-12.26 -28.79,-17.11 -10.09,-4.94 -23.07,-10.41 -38.88,-16.41 -8.32,-3.35 -14.91,-5.91 -19.65,-7.93 -4.65,-1.94 -10.79,-4.68 -18.33,-8.12 -7.56,-3.44 -13.53,-6.44 -17.91,-8.91 -4.39,-2.55 -9.57,-5.73 -15.54,-9.61 -5.96,-3.88 -10.78,-7.58 -14.29,-11.11 -3.52,-3.53 -7.2,-7.67 -11.15,-12.61 -3.95,-4.94 -6.93,-9.88 -9.04,-14.91 -2.02,-4.94 -3.77,-10.58 -5.09,-16.84 -1.4,-6.35 -2.11,-12.97 -2.11,-20.11 0,-26.46 10.45,-48.42 31.16,-65.88 20.7,-17.38 48.61,-26.11 83.81,-26.11 17.46,0 34.04,1.94 49.58,5.82 15.62,3.88 27.55,7.85 35.8,11.91 8.16,4.06 17.64,9.26 28.26,15.61l-13.88 24.61c-31.76,-20.55 -64.67,-30.78 -98.72,-30.78 -25.88,0 -46.51,5.9 -61.77,17.55 -15.18,11.73 -22.82,28.04 -22.82,48.86 0,5.82 0.88,11.46 2.81,16.75 1.84,5.38 4.21,10.15 7.11,14.29 2.8,4.06 6.84,8.29 12.19,12.52 5.27,4.24 10.27,7.77 14.92,10.68 4.57,2.99 10.97,6.35 18.95,10.23 8.08,3.88 15.01,7.05 20.72,9.43 5.79,2.38 13.51,5.65 23.25,9.79 5.18,2.3 9.13,3.88 11.85,4.94 12.55,5.21 23.26,10.06 32.11,14.55 8.96,4.59 17.64,9.88 25.98,15.79 8.43,6 15.19,12.08 20.36,18.35 5.09,6.26 9.21,13.58 12.29,21.96 3.15,8.37 4.64,17.46 4.64,27.25 0,30.69 -10.96,55.56 -32.9,74.52 -21.94,19.05 -52.48,28.58 -91.53,28.58 -20.71,0 -41.86,-3 -63.53,-9 -21.59,-6.08 -40.55,-14.29 -57.04,-24.87zm330.39 -343.87c6.49,0 12.03,2.03 16.58,6.17 4.57,4.15 6.85,10.23 6.85,18.08 0,7.94 -2.28,13.94 -6.85,17.99 -4.55,4.06 -10.09,6.09 -16.58,6.09 -6.32,0 -11.75,-2.03 -16.23,-6.09 -4.39,-4.05 -6.67,-10.05 -6.67,-17.99 0,-7.85 2.28,-13.93 6.67,-18.08 4.48,-4.14 9.91,-6.17 16.23,-6.17zm14.92 371.3l-29.31 0 0 -277.29 29.31 0 0 277.29zm142.68 -277.29l67.83 0 0 26.11 -67.83 0 0 201.79c0,9.88 2.19,17.02 6.67,21.52 4.48,4.41 10.01,6.7 16.5,6.7 11.14,0 23.43,-3.17 37.03,-9.61l9.22 24.61c-15.63,8.2 -31.07,12.34 -46.51,12.34 -17.02,0 -30.1,-4.32 -39.49,-12.87 -9.31,-8.65 -14.04,-21.43 -14.04,-38.54l0 -205.94 -48.27 0 0 -26.11 48.27 0 0 -45.68 16.75 -25.31 13.87 0 0 70.99zm333.2 223.05l18.52 19.84c-14.57,12.97 -30.89,22.93 -48.97,29.99 -18.07,7.06 -39.92,10.58 -65.46,10.58 -13.34,0 -26.16,-1.76 -38.43,-5.38 -12.2,-3.61 -23.78,-9.26 -34.58,-16.93 -10.8,-7.67 -20.19,-17.02 -28.08,-28.05 -7.99,-11.02 -14.31,-24.43 -18.78,-40.3 -4.56,-15.88 -6.85,-33.34 -6.85,-52.48 0,-46.48 11.41,-82.55 34.23,-108.21 22.72,-25.67 53.09,-38.54 91,-38.54 19.39,0 36.86,3.79 52.39,11.29 15.62,7.49 28.26,17.55 38,30.16 9.65,12.7 17.02,26.99 22.11,42.77 5,15.88 7.55,32.46 7.55,49.92 0,9.97 -0.53,18.88 -1.58,26.55l-211.31 0c6.66,67.73 39.84,101.6 99.51,101.6 35.45,0 65.73,-10.94 90.73,-32.81zm-191.48 -95.87l186.13 0c-1.4,-31.57 -10.27,-57.06 -26.5,-76.46 -16.33,-19.49 -37.82,-29.2 -64.49,-29.2 -28.35,0 -51.08,9.35 -68.28,27.96 -17.28,18.7 -26.24,44.63 -26.86,77.7z"/>
    <path class="fil0" d="M8595.14 4715.16l13.08 -26.64c9.57,9.09 21.5,16.32 35.72,21.7 14.22,5.29 27.91,8.02 41.15,8.02 23.25,0 41.16,-4.94 53.62,-14.73 12.38,-9.87 18.61,-22.13 18.61,-36.95 0,-3.62 -0.36,-6.97 -1.06,-9.97 -0.61,-2.99 -1.93,-5.82 -3.68,-8.55 -1.85,-2.65 -3.51,-4.94 -5,-6.97 -1.58,-1.94 -4.13,-4.05 -7.72,-6.17 -3.61,-2.12 -6.5,-3.88 -8.61,-5.03 -2.19,-1.23 -5.79,-2.82 -10.97,-4.76 -5.09,-2.03 -8.95,-3.44 -11.41,-4.41 -2.46,-0.97 -6.92,-2.56 -13.33,-4.67 -6.5,-2.12 -11.15,-3.71 -14.04,-4.77 -11.67,-4.14 -20.89,-7.67 -27.82,-10.49 -6.85,-2.82 -14.04,-6.53 -21.67,-11.12 -7.64,-4.58 -13.43,-9.34 -17.38,-14.28 -3.95,-5.03 -7.2,-11.2 -9.92,-18.61 -2.63,-7.41 -3.95,-15.88 -3.95,-25.31 0,-23.11 9.04,-41.54 27.12,-55.21 18.08,-13.67 40.71,-20.55 68.01,-20.55 17.46,0 34.14,2.64 50.02,8.02 15.8,5.38 29.13,12.26 39.93,20.64l-15.1 23.55c-26.24,-16.41 -51.42,-24.52 -75.38,-24.52 -19.39,0 -34.92,4.32 -46.78,13.14 -11.84,8.82 -17.72,20.11 -17.72,33.87 0,6.35 1.32,12.17 3.95,17.46 2.63,5.2 5.71,9.53 9.13,12.79 3.42,3.26 8.59,6.53 15.44,9.79 6.85,3.26 12.55,5.73 17.2,7.32 4.65,1.67 11.33,3.88 20.09,6.61 25.54,8.12 43.1,14.64 52.66,19.67 24.58,12.7 37.65,30.78 39.4,54.24 0.09,2.03 0.18,4.15 0.18,6.17 0,24.17 -8.95,43.66 -26.86,58.65 -17.9,15 -43.17,22.49 -75.9,22.49 -15.97,0 -32.29,-2.64 -48.88,-8.11 -16.59,-5.47 -30.71,-12.88 -42.13,-22.31z"/>
   </g>
  </g>
 </g>
</svg>
