<svg width="46" height="46" viewBox="0 0 46 46" fill="none" xmlns="http://www.w3.org/2000/svg">
<g clip-path="url(#clip0_122_60)">
<path d="M41.5526 35.282C41.1317 35.203 40.733 35.4668 40.6479 35.8808C39.7923 40.099 36.4734 42.9333 32.3909 42.9333C28.5361 42.9333 25.149 40.4033 23.9974 36.8H27.6V35.2667H21.4667V41.4H23V38.4491C24.6629 42.0386 28.3015 44.4667 32.3909 44.4667C37.224 44.4667 41.1462 41.1386 42.1513 36.1859C42.2357 35.7704 41.9673 35.3663 41.5526 35.282Z" fill="#FCFAFE"/>
<path d="M41.4 26.0667V29.3702C39.675 25.9547 36.2603 23.7667 32.3909 23.7667C27.7073 23.7667 23.5428 26.831 22.264 31.2194C22.1459 31.6258 22.379 32.0513 22.7861 32.1693C23.1932 32.2897 23.6187 32.0543 23.736 31.6472C24.8078 27.9695 28.4472 25.3 32.3909 25.3C35.8907 25.3 38.9551 27.4206 40.3106 30.6667H36.8V32.2H42.9333V26.0667H41.4Z" fill="#FCFAFE"/>
<path d="M16.1 37.5667C14.4088 37.5667 13.0334 38.9421 13.0334 40.6333C13.0334 42.3246 14.4088 43.7 16.1 43.7C17.7913 43.7 19.1667 42.3246 19.1667 40.6333C19.1667 38.9421 17.7913 37.5667 16.1 37.5667ZM16.1 42.1667C15.2544 42.1667 14.5667 41.479 14.5667 40.6333C14.5667 39.7877 15.2544 39.1 16.1 39.1C16.9457 39.1 17.6334 39.7877 17.6334 40.6333C17.6334 41.479 16.9457 42.1667 16.1 42.1667Z" fill="#FCFAFE"/>
<path d="M25.7562 44.4667H6.44385C5.42725 44.4667 4.60001 43.6394 4.60001 42.6228V36.8H18.4C18.824 36.8 19.1667 36.4573 19.1667 36.0333C19.1667 35.6094 18.824 35.2667 18.4 35.2667H4.60001V6.13333H27.6V23C27.6 23.424 27.9427 23.7667 28.3667 23.7667C28.7906 23.7667 29.1333 23.424 29.1333 23V3.37717C29.1333 1.5157 27.6176 0 25.7562 0H6.44385C4.58238 0 3.06668 1.5157 3.06668 3.37717V42.6221C3.06668 44.4843 4.58238 46 6.44385 46H25.7554C26.1794 46 26.5221 45.6573 26.5221 45.2333C26.5221 44.8094 26.1794 44.4667 25.7562 44.4667ZM6.44385 1.53333H25.7554C26.7728 1.53333 27.6 2.36057 27.6 3.37717V4.6H4.60001V3.37717C4.60001 2.36057 5.42725 1.53333 6.44385 1.53333Z" fill="#FCFAFE"/>
<path d="M13.0334 3.83332H16.1C16.524 3.83332 16.8667 3.49062 16.8667 3.06665C16.8667 2.64269 16.524 2.29999 16.1 2.29999H13.0334C12.6094 2.29999 12.2667 2.64269 12.2667 3.06665C12.2667 3.49062 12.6094 3.83332 13.0334 3.83332Z" fill="#FCFAFE"/>
<path d="M18.4 3.83332H19.1667C19.5907 3.83332 19.9334 3.49062 19.9334 3.06665C19.9334 2.64269 19.5907 2.29999 19.1667 2.29999H18.4C17.9761 2.29999 17.6334 2.64269 17.6334 3.06665C17.6334 3.49062 17.9761 3.83332 18.4 3.83332Z" fill="#FCFAFE"/>
</g>
<defs>
<clipPath id="clip0_122_60">
<rect width="46" height="46" fill="white"/>
</clipPath>
</defs>
</svg>
