<svg width="10" height="10" viewBox="0 0 10 10" fill="none" xmlns="http://www.w3.org/2000/svg">
<g clip-path="url(#clip0_30_182)">
<path opacity="0.5" d="M9.16667 5.00004C9.16667 7.30121 7.30117 9.16671 5 9.16671C2.69881 9.16671 0.833336 7.30121 0.833336 5.00004C0.833336 2.69885 2.69881 0.833374 5 0.833374C7.30117 0.833374 9.16667 2.69885 9.16667 5.00004Z" fill="#7B2CBF"/>
<path d="M6.67929 3.7374C6.80133 3.85944 6.80133 4.05731 6.67929 4.17933L4.59595 6.26266C4.47391 6.38471 4.27608 6.38471 4.15403 6.26266L3.32069 5.42933C3.19865 5.30729 3.19865 5.10946 3.32069 4.98741C3.44273 4.86537 3.6406 4.86537 3.76263 4.98741L4.375 5.59975L5.30616 4.66858L6.23737 3.7374C6.35941 3.61536 6.55725 3.61536 6.67929 3.7374Z" fill="#E0DCF8"/>
</g>
<defs>
<clipPath id="clip0_30_182">
<rect width="10" height="10" fill="white"/>
</clipPath>
</defs>
</svg>
