<svg width="200" height="200" viewBox="0 0 200 200" fill="none" xmlns="http://www.w3.org/2000/svg">
<path d="M197.5 100C197.5 153.848 153.848 197.5 100 197.5C46.1522 197.5 2.5 153.848 2.5 100C2.5 46.1522 46.1522 2.5 100 2.5C153.848 2.5 197.5 46.1522 197.5 100Z" fill="#E0DCF8" stroke="#7B2CBF" stroke-width="5"/>
<path d="M52.9346 135H44.8047V81.3867L28.0615 87.7588V80.332L52.2754 71.0156H52.9346V135ZM120.786 110.522C120.786 114.595 120.317 118.213 119.38 121.377C118.442 124.512 117.095 127.148 115.337 129.287C113.579 131.455 111.426 133.096 108.877 134.209C106.328 135.322 103.413 135.879 100.132 135.879C96.8799 135.879 93.9648 135.337 91.3867 134.253C88.8086 133.14 86.626 131.484 84.8389 129.287C83.0518 127.148 81.6895 124.512 80.752 121.377C79.8145 118.213 79.3457 114.595 79.3457 110.522V95.5371C79.3457 91.4648 79.8145 87.8613 80.752 84.7266C81.6895 81.5625 83.0518 78.8965 84.8389 76.7285C86.5967 74.5605 88.75 72.9199 91.2988 71.8066C93.877 70.6641 96.792 70.0928 100.044 70.0928C103.325 70.0928 106.24 70.6641 108.789 71.8066C111.367 72.9199 113.55 74.5605 115.337 76.7285C117.095 78.8965 118.442 81.5625 119.38 84.7266C120.317 87.8613 120.786 91.4648 120.786 95.5371V110.522ZM87.5195 108.896L112.437 89.7803C112.202 87.6709 111.777 85.8105 111.162 84.1992C110.576 82.5586 109.771 81.1963 108.745 80.1123C107.749 78.999 106.519 78.1641 105.054 77.6074C103.618 77.0508 101.948 76.7725 100.044 76.7725C98.1104 76.7725 96.3965 77.0801 94.9023 77.6953C93.4375 78.2812 92.1924 79.1455 91.167 80.2881C89.9365 81.7236 89.0137 83.584 88.3984 85.8691C87.8125 88.125 87.5195 90.7471 87.5195 93.7354V104.458C87.5195 105.19 87.5195 105.923 87.5195 106.655C87.5195 107.388 87.5195 108.135 87.5195 108.896ZM112.612 112.236V103.184C112.612 102.744 112.612 101.909 112.612 100.679C112.612 99.4189 112.612 98.3789 112.612 97.5586L87.7393 116.587C88.0029 118.726 88.4717 120.615 89.1455 122.256C89.8193 123.867 90.6982 125.2 91.7822 126.255C92.7783 127.251 93.9795 128.013 95.3857 128.54C96.792 129.038 98.374 129.287 100.132 129.287C101.978 129.287 103.618 129.009 105.054 128.452C106.489 127.896 107.705 127.09 108.701 126.035C110.049 124.6 111.03 122.725 111.646 120.41C112.29 118.096 112.612 115.371 112.612 112.236ZM174.839 110.522C174.839 114.595 174.37 118.213 173.433 121.377C172.495 124.512 171.147 127.148 169.39 129.287C167.632 131.455 165.479 133.096 162.93 134.209C160.381 135.322 157.466 135.879 154.185 135.879C150.933 135.879 148.018 135.337 145.439 134.253C142.861 133.14 140.679 131.484 138.892 129.287C137.104 127.148 135.742 124.512 134.805 121.377C133.867 118.213 133.398 114.595 133.398 110.522V95.5371C133.398 91.4648 133.867 87.8613 134.805 84.7266C135.742 81.5625 137.104 78.8965 138.892 76.7285C140.649 74.5605 142.803 72.9199 145.352 71.8066C147.93 70.6641 150.845 70.0928 154.097 70.0928C157.378 70.0928 160.293 70.6641 162.842 71.8066C165.42 72.9199 167.603 74.5605 169.39 76.7285C171.147 78.8965 172.495 81.5625 173.433 84.7266C174.37 87.8613 174.839 91.4648 174.839 95.5371V110.522ZM141.572 108.896L166.489 89.7803C166.255 87.6709 165.83 85.8105 165.215 84.1992C164.629 82.5586 163.823 81.1963 162.798 80.1123C161.802 78.999 160.571 78.1641 159.106 77.6074C157.671 77.0508 156.001 76.7725 154.097 76.7725C152.163 76.7725 150.449 77.0801 148.955 77.6953C147.49 78.2812 146.245 79.1455 145.22 80.2881C143.989 81.7236 143.066 83.584 142.451 85.8691C141.865 88.125 141.572 90.7471 141.572 93.7354V104.458C141.572 105.19 141.572 105.923 141.572 106.655C141.572 107.388 141.572 108.135 141.572 108.896ZM166.665 112.236V103.184C166.665 102.744 166.665 101.909 166.665 100.679C166.665 99.4189 166.665 98.3789 166.665 97.5586L141.792 116.587C142.056 118.726 142.524 120.615 143.198 122.256C143.872 123.867 144.751 125.2 145.835 126.255C146.831 127.251 148.032 128.013 149.438 128.54C150.845 129.038 152.427 129.287 154.185 129.287C156.03 129.287 157.671 129.009 159.106 128.452C160.542 127.896 161.758 127.09 162.754 126.035C164.102 124.6 165.083 122.725 165.698 120.41C166.343 118.096 166.665 115.371 166.665 112.236Z" fill="#3C096C"/>
</svg>
