<svg width="49" height="49" viewBox="0 0 49 49" fill="none" xmlns="http://www.w3.org/2000/svg">
<g id="otimizado 1" clip-path="url(#clip0_22_1493)">
<g id="Group">
<g id="Group_2">
<g id="Group_3">
<path id="Vector" d="M39.9736 6.13791C39.5463 6.13791 39.2 6.48435 39.2 6.91157V7.01474C39.2 7.44206 39.5464 7.7884 39.9736 7.7884C40.4008 7.7884 40.7473 7.44196 40.7473 7.01474V6.91157C40.7473 6.48426 40.4009 6.13791 39.9736 6.13791Z" fill="#E0DCF8"/>
<path id="Vector_2" d="M30.8553 33.0706C28.9418 33.0706 27.385 34.6274 27.385 36.5409C27.385 38.4544 28.9418 40.0112 30.8553 40.0112C32.7688 40.0112 34.3256 38.4545 34.3256 36.5409C34.3257 34.6273 32.7689 33.0706 30.8553 33.0706ZM30.8553 38.4639C29.795 38.4639 28.9323 37.6013 28.9323 36.5409C28.9323 35.4806 29.7949 34.6179 30.8553 34.6179C31.9157 34.6179 32.7783 35.4805 32.7783 36.5409C32.7784 37.6012 31.9157 38.4639 30.8553 38.4639Z" fill="#E0DCF8"/>
<path id="Vector_3" d="M43.0685 6.13791C42.6411 6.13791 42.2948 6.48435 42.2948 6.91157V7.01474C42.2948 7.44206 42.6412 7.7884 43.0685 7.7884C43.4958 7.7884 43.8421 7.44196 43.8421 7.01474V6.91157C43.8421 6.48426 43.4958 6.13791 43.0685 6.13791Z" fill="#E0DCF8"/>
<path id="Vector_4" d="M44.1 3.09475H20.1157V2.83683C20.1157 1.27256 18.8433 0 17.2789 0H9.02634C7.46207 0 6.1895 1.27256 6.1895 2.83683V3.09475H4.9C2.1982 3.09475 0 5.29296 0 7.99475V38.9421C0 41.6439 2.1982 43.8421 4.9 43.8421H21.0301C22.1055 44.6217 23.5835 44.7466 24.806 44.0407L25.527 43.6244C26.1021 44.058 26.7239 44.4175 27.385 44.6987V45.5296C27.385 47.4432 28.9417 48.9999 30.8553 48.9999C32.7688 48.9999 34.3256 47.4432 34.3256 45.5296V44.6987C34.9867 44.4176 35.6085 44.0581 36.1835 43.6244L36.9046 44.0407C38.1272 44.7466 39.6049 44.6216 40.6803 43.8421H44.0998C46.8016 43.8421 48.9998 41.6439 48.9998 38.9421V7.99475C49 5.29296 46.8018 3.09475 44.1 3.09475ZM7.73683 2.83683C7.73683 2.12576 8.31526 1.54733 9.02634 1.54733H17.279C17.9901 1.54733 18.5685 2.12576 18.5685 2.83683V9.28416H7.73683V2.83683ZM1.54733 7.99475C1.54733 6.14615 3.0514 4.64208 4.9 4.64208H6.1895V9.28416H1.54733V7.99475ZM40.3052 41.9967C39.775 42.9149 38.5966 43.2307 37.6783 42.7005L36.4989 42.0196C36.2149 41.8556 35.8581 41.8885 35.609 42.1018C34.9218 42.6899 34.143 43.1402 33.2941 43.4403C32.9849 43.5495 32.7782 43.8419 32.7782 44.1698V45.5296C32.7782 46.59 31.9157 47.4526 30.8553 47.4526C29.795 47.4526 28.9323 46.59 28.9323 45.5296V44.1698C28.9323 43.8418 28.7256 43.5496 28.4166 43.4403C27.5677 43.1403 26.7888 42.6899 26.1016 42.1018C25.958 41.9789 25.7788 41.916 25.5984 41.916C25.4656 41.916 25.3321 41.9501 25.2116 42.0196L24.0322 42.7005C23.3176 43.1132 22.4455 43.0134 21.844 42.5161C21.8216 42.4941 21.7978 42.4735 21.7728 42.4543C21.631 42.3247 21.5064 42.1717 21.4054 41.9965C20.8753 41.0784 21.1911 39.8999 22.1092 39.3697L23.2875 38.6894C23.5712 38.5257 23.721 38.201 23.6614 37.8788C23.5803 37.4392 23.539 36.989 23.539 36.5406C23.539 36.0921 23.5802 35.6419 23.6614 35.2025C23.721 34.8803 23.5712 34.5557 23.2875 34.3919L22.1092 33.7116C21.1911 33.1814 20.8752 32.003 21.4054 31.0848C21.6623 30.6399 22.077 30.3218 22.5731 30.1888C23.0695 30.056 23.5876 30.1241 24.0324 30.3809L25.2118 31.0618C25.496 31.2258 25.8526 31.1929 26.1017 30.9796C26.7889 30.3915 27.5678 29.9412 28.4166 29.6411C28.7258 29.5317 28.9324 29.2395 28.9324 28.9116V27.5518C28.9324 26.4914 29.795 25.6288 30.8554 25.6288C31.9157 25.6288 32.7783 26.4914 32.7783 27.5518V28.9116C32.7783 29.2395 32.9849 29.5318 33.2941 29.6411C34.143 29.9412 34.9219 30.3916 35.609 30.9796C35.8582 31.1928 36.2149 31.2257 36.4989 31.0618L37.6783 30.3809C38.1232 30.1241 38.6412 30.0559 39.1375 30.1888C39.6337 30.3217 40.0483 30.6399 40.3052 31.0848C40.562 31.5296 40.6302 32.0477 40.4973 32.5439C40.3643 33.0402 40.046 33.4548 39.6012 33.7116L38.423 34.3919C38.1393 34.5556 37.9895 34.8803 38.0491 35.2024C38.1303 35.6422 38.1715 36.0924 38.1715 36.5407C38.1715 36.9888 38.1303 37.4391 38.0491 37.8791C37.9896 38.2011 38.1393 38.5259 38.423 38.6896L39.6012 39.3699C40.046 39.6267 40.3642 40.0414 40.4973 40.5375C40.6302 41.0338 40.562 41.5519 40.3052 41.9967ZM47.4527 38.9421C47.4527 40.7907 45.9486 42.2948 44.1 42.2948H41.8743C42.1427 41.6101 42.1857 40.8606 41.9919 40.1371C41.752 39.2417 41.1778 38.4934 40.375 38.0299L39.6542 37.6137C39.6972 37.2578 39.719 36.8987 39.719 36.5409C39.719 36.1831 39.6974 35.824 39.6542 35.4681L40.375 35.0519C41.1778 34.5884 41.7521 33.84 41.9919 32.9447C42.2318 32.0494 42.1087 31.1141 41.6452 30.3115C41.1817 29.5087 40.4333 28.9344 39.538 28.6946C38.6426 28.4545 37.7074 28.5778 36.9048 29.0413L36.1837 29.4575C35.6087 29.0239 34.9869 28.6643 34.3257 28.3832V27.5522C34.3257 25.6386 32.769 24.0819 30.8555 24.0819C28.942 24.0819 27.3852 25.6387 27.3852 27.5522V28.3831C26.724 28.6642 26.1022 29.0238 25.5272 29.4574L24.8062 29.0412C23.1491 28.0845 21.0224 28.6543 20.0655 30.3114C19.1089 31.9685 19.6786 34.0952 21.3357 35.052L22.0565 35.4682C22.0135 35.824 21.9918 36.1831 21.9918 36.541C21.9918 36.899 22.0134 37.258 22.0566 37.6138L21.3358 38.03C19.8336 38.8974 19.2249 40.7261 19.8369 42.2948H4.9C3.0514 42.2947 1.54733 40.7907 1.54733 38.9421V10.8316H47.4526V38.9421H47.4527ZM47.4527 9.28426H20.1157V4.64208H44.1C45.9486 4.64208 47.4527 6.14615 47.4527 7.99475V9.28426Z" fill="#E0DCF8"/>
<path id="Vector_5" d="M20.2705 15.9895H42.9652C43.3926 15.9895 43.7389 15.6431 43.7389 15.2158C43.7389 14.7885 43.3925 14.4422 42.9652 14.4422H20.2705C19.8432 14.4422 19.4968 14.7886 19.4968 15.2158C19.4968 15.6431 19.8433 15.9895 20.2705 15.9895Z" fill="#E0DCF8"/>
<path id="Vector_6" d="M7.89164 38.6843H17.1758C17.6031 38.6843 17.9495 38.3378 17.9495 37.9106C17.9495 37.4833 17.603 37.1369 17.1758 37.1369H7.89164C7.18057 37.1369 6.60214 36.5585 6.60214 35.8474V22.4368C6.60214 21.7258 7.18057 21.1473 7.89164 21.1473H40.9021C41.6132 21.1473 42.1916 21.7258 42.1916 22.4368V27.5948C42.1916 28.0221 42.5381 28.3684 42.9653 28.3684C43.3926 28.3684 43.739 28.022 43.739 27.5948V22.4368C43.739 20.8726 42.4664 19.6 40.9021 19.6H7.89164C6.32737 19.6 5.05481 20.8726 5.05481 22.4368V35.8473C5.05481 37.4117 6.32737 38.6843 7.89164 38.6843Z" fill="#E0DCF8"/>
<path id="Vector_7" d="M5.82847 15.9895H13.0496C13.4769 15.9895 13.8232 15.6431 13.8232 15.2158C13.8232 14.7885 13.4768 14.4422 13.0496 14.4422H5.82847C5.40116 14.4422 5.05481 14.7886 5.05481 15.2158C5.05481 15.6431 5.40116 15.9895 5.82847 15.9895Z" fill="#E0DCF8"/>
<path id="Vector_8" d="M30.8552 30.3739C27.4547 30.3739 24.6882 33.1404 24.6882 36.5409C24.6882 39.9414 27.4547 42.7079 30.8552 42.7079C34.2558 42.7079 37.0223 39.9414 37.0223 36.5409C37.0223 33.1404 34.2558 30.3739 30.8552 30.3739ZM30.8552 41.1604C28.308 41.1604 26.2357 39.0881 26.2357 36.5408C26.2357 33.9935 28.308 31.9212 30.8552 31.9212C33.4025 31.9212 35.4748 33.9936 35.4748 36.5408C35.4748 39.0881 33.4025 41.1604 30.8552 41.1604Z" fill="#E0DCF8"/>
<path id="Vector_9" d="M36.8789 6.13791C36.4516 6.13791 36.1052 6.48435 36.1052 6.91157V7.01474C36.1052 7.44206 36.4517 7.7884 36.8789 7.7884C37.3062 7.7884 37.6526 7.44196 37.6526 7.01474V6.91157C37.6526 6.48426 37.3062 6.13791 36.8789 6.13791Z" fill="#E0DCF8"/>
</g>
</g>
</g>
</g>
<defs>
<clipPath id="clip0_22_1493">
<rect width="49" height="49" fill="white"/>
</clipPath>
</defs>
</svg>
