<svg width="56" height="56" viewBox="0 0 56 56" fill="none" xmlns="http://www.w3.org/2000/svg">
<g id="responsivo 1" clip-path="url(#clip0_22_1485)">
<g id="Group">
<g id="Layer_20_51_">
<g id="Group_2">
<path id="Vector" d="M17.6835 37.6307H25.4931V39.4323H17.6835V40.9174H42.2454V39.4323H33.1399V37.6307H43.2672V33.5172H17.6835V37.6307Z" fill="#E0DCF8"/>
<path id="Vector_2" d="M10.8819 12.8796H48.1158V27.7626H51.3062V9.68921H7.69153V19.656H10.8819V12.8796Z" fill="#E0DCF8"/>
<path id="Vector_3" d="M0 45.641H16.6548V20.6571H0V45.641ZM8.6789 44.3865C8.23624 44.3865 7.87615 44.0287 7.87615 43.5849C7.87615 43.1422 8.23624 42.7832 8.6789 42.7832C9.12271 42.7832 9.4805 43.141 9.4805 43.5849C9.4805 44.0287 9.12271 44.3865 8.6789 44.3865ZM2.40826 23.0654H14.2489L14.2477 41.4966H2.40826V23.0654Z" fill="#E0DCF8"/>
<path id="Vector_4" d="M44.3979 28.7225V46.3108H56V28.7225H44.3979ZM50.4346 29.4495C50.5734 29.4495 50.6869 29.5654 50.6869 29.703C50.6869 29.8417 50.5734 29.9576 50.4346 29.9576C50.2936 29.9576 50.1789 29.8417 50.1789 29.703C50.1789 29.5642 50.2924 29.4495 50.4346 29.4495ZM48.9278 30.2936H51.9358V30.5367H48.9278V30.2936ZM50.3337 45.5516C50 45.5516 49.7328 45.281 49.7328 44.9495C49.7328 44.617 50 44.3486 50.3337 44.3486C50.6651 44.3486 50.9358 44.617 50.9358 44.9495C50.9358 45.2798 50.6651 45.5516 50.3337 45.5516ZM54.3223 43.4805C51.6067 43.4954 47.4232 43.5057 46.078 43.4943V31.4014L54.3223 31.4002V43.4805Z" fill="#E0DCF8"/>
</g>
</g>
</g>
</g>
<defs>
<clipPath id="clip0_22_1485">
<rect width="56" height="56" fill="white"/>
</clipPath>
</defs>
</svg>
