<svg width="171" height="25" viewBox="0 0 171 25" fill="none" xmlns="http://www.w3.org/2000/svg">
<path d="M138.5 13C138.5 6.3726 143.873 1 150.5 1C157.127 1 162.5 6.3726 162.5 13C162.5 19.6274 157.127 25 150.5 25C143.873 25 138.5 19.6274 138.5 13Z" fill="#9D4EDD"/>
<path d="M150.5 8.70664C151.814 8.70664 152.701 9.27445 153.207 9.7489L155.182 7.82C153.969 6.69219 152.39 6 150.5 6C147.762 6 145.398 7.57109 144.247 9.85774L146.51 11.6155C147.078 9.92774 148.649 8.70664 150.5 8.70664Z" fill="#FAFBFC"/>
<path d="M157.22 13.1557C157.22 12.5802 157.173 12.1602 157.072 11.7246H150.5V14.3223H154.358C154.28 14.9679 153.86 15.9402 152.927 16.5934L155.135 18.3046C156.458 17.0834 157.22 15.2868 157.22 13.1557Z" fill="#FAFBFC"/>
<path d="M146.518 14.3846C146.37 13.9491 146.284 13.4824 146.284 13.0002C146.284 12.5179 146.37 12.0513 146.51 11.6157L144.247 9.85791C143.772 10.8068 143.5 11.8724 143.5 13.0002C143.5 14.1279 143.772 15.1935 144.247 16.1424L146.518 14.3846Z" fill="#FAFBFC"/>
<path d="M150.5 20.0003C152.39 20.0003 153.976 19.3781 155.135 18.3048L152.926 16.5937C152.335 17.0059 151.542 17.2937 150.5 17.2937C148.649 17.2937 147.078 16.0725 146.518 14.3848L144.254 16.1425C145.405 18.4292 147.762 20.0003 150.5 20.0003Z" fill="#FAFBFC"/>
<path d="M106.5 13C106.5 6.3726 111.873 1 118.5 1C125.127 1 130.5 6.3726 130.5 13C130.5 19.6274 125.127 25 118.5 25C111.873 25 106.5 19.6274 106.5 13Z" fill="#9D4EDD"/>
<path d="M115.7 9.8V18.5C115.7 18.665 115.565 18.8 115.4 18.8H112.4C112.235 18.8 112.1 18.665 112.1 18.5V9.8C112.1 9.635 112.235 9.5 112.4 9.5H115.4C115.565 9.5 115.7 9.635 115.7 9.8Z" fill="white"/>
<path d="M115.697 7.36683C115.697 8.26083 114.941 8.89683 113.9 8.89683C112.877 8.89683 112.103 8.24583 112.103 7.38483C112.103 6.52683 112.859 5.90283 113.9 5.90283C114.908 5.90283 115.649 6.50583 115.697 7.36683Z" fill="white"/>
<path d="M125.9 13.4V18.5C125.9 18.665 125.765 18.8 125.6 18.8H122.9C122.734 18.8 122.6 18.6656 122.6 18.5V13.85C122.6 13.139 122.054 12.56 121.358 12.506C121.322 12.5 121.286 12.5 121.25 12.5C121.214 12.5 121.178 12.5 121.142 12.506C120.446 12.56 119.9 13.139 119.9 13.85C119.9 13.85 119.9 13.889 119.9 13.925C119.9 13.961 119.9 14 119.9 14V18.5C119.9 18.6656 119.766 18.8 119.6 18.8H116.9C116.735 18.8 116.6 18.665 116.6 18.5V9.8C116.6 9.635 116.735 9.5 116.9 9.5H119.9C120.065 9.5 120.2 9.635 120.2 9.8V10.247C120.683 9.908 121.481 9.5 122.537 9.5C124.859 9.5 125.9 11.459 125.9 13.4Z" fill="white"/>
<path d="M97.5 12C97.5 5.3719 92.1281 0 85.5 0C78.8719 0 73.5 5.3719 73.5 12C73.5 17.9907 77.8875 22.9547 83.625 23.8547V15.4688H80.5781V12H83.625V9.35625C83.625 6.3492 85.4156 4.6875 88.1578 4.6875C89.4703 4.6875 90.8438 4.92188 90.8438 4.92188V7.875H89.3297C87.8391 7.875 87.375 8.8008 87.375 9.75V12H90.7031L90.1711 15.4688H87.375V23.8547C93.1125 22.9547 97.5 17.9907 97.5 12Z" fill="#9D4EDD"/>
<path d="M90.1711 15.4688L90.7031 12H87.375V9.75C87.375 8.8008 87.8391 7.875 89.3297 7.875H90.8438V4.92188C90.8438 4.92188 89.4703 4.6875 88.1578 4.6875C85.4157 4.6875 83.625 6.3492 83.625 9.35625V12H80.5781V15.4688H83.625V23.8547C84.2367 23.9508 84.8625 24 85.5 24C86.1375 24 86.7633 23.9508 87.375 23.8547V15.4688H90.1711Z" fill="#FAFBFC"/>
<path d="M41.5 12C41.5 5.3726 46.8726 0 53.5 0C60.1274 0 65.5 5.3726 65.5 12C65.5 18.6274 60.1274 24 53.5 24C46.8726 24 41.5 18.6274 41.5 12Z" fill="#9D4EDD"/>
<mask id="mask0_49_70" style="mask-type:alpha" maskUnits="userSpaceOnUse" x="41" y="0" width="25" height="24">
<path fill-rule="evenodd" clip-rule="evenodd" d="M41.5 12C41.5 5.3726 46.8726 0 53.5 0C60.1274 0 65.5 5.3726 65.5 12C65.5 18.6274 60.1274 24 53.5 24C46.8726 24 41.5 18.6274 41.5 12Z" fill="#B4B2C7"/>
</mask>
<g mask="url(#mask0_49_70)">
<path fill-rule="evenodd" clip-rule="evenodd" d="M53.5005 5C51.5995 5 51.3609 5.00831 50.6142 5.04227C49.869 5.0764 49.3603 5.19436 48.9152 5.3675C48.4548 5.54627 48.0643 5.78542 47.6752 6.17468C47.2858 6.56372 47.0466 6.9543 46.8673 7.41454C46.6938 7.85975 46.5756 8.36856 46.5421 9.11351C46.5087 9.86015 46.4999 10.0989 46.4999 12C46.4999 13.9011 46.5084 14.1389 46.5422 14.8856C46.5765 15.6308 46.6945 16.1395 46.8674 16.5846C47.0464 17.0449 47.2855 17.4355 47.6748 17.8246C48.0637 18.214 48.4542 18.4537 48.9144 18.6325C49.3597 18.8056 49.8686 18.9236 50.6136 18.9577C51.3603 18.9917 51.5987 19 53.4997 19C55.4009 19 55.6387 18.9917 56.3854 18.9577C57.1306 18.9236 57.6399 18.8056 58.0853 18.6325C58.5455 18.4537 58.9354 18.214 59.3244 17.8246C59.7138 17.4355 59.953 17.0449 60.1323 16.5847C60.3044 16.1395 60.4226 15.6307 60.4576 14.8857C60.4911 14.1391 60.4998 13.9011 60.4998 12C60.4998 10.0989 60.4911 9.86031 60.4576 9.11367C60.4226 8.36845 60.3044 7.85975 60.1323 7.41471C59.953 6.9543 59.7138 6.56372 59.3244 6.17468C58.935 5.78531 58.5456 5.5461 58.0848 5.3675C57.6385 5.19436 57.1296 5.0764 56.3844 5.04227C55.6377 5.00831 55.4 5 53.4984 5H53.5005ZM53.2671 6.26136H53.2672L53.5005 6.26141C55.3695 6.26141 55.5911 6.26814 56.3291 6.30166C57.0116 6.33289 57.3821 6.44691 57.6288 6.54272C57.9555 6.6696 58.1884 6.8213 58.4332 7.0663C58.6782 7.31129 58.8299 7.54464 58.9571 7.87129C59.0529 8.11776 59.167 8.48816 59.1981 9.17065C59.2316 9.9086 59.239 10.1302 59.239 11.9984C59.239 13.8665 59.2316 14.0882 59.1981 14.8261C59.1669 15.5086 59.0529 15.879 58.9571 16.1255C58.8302 16.4521 58.6782 16.6848 58.4332 16.9296C58.1882 17.1746 57.9556 17.3263 57.6288 17.4532C57.3823 17.5494 57.0116 17.6632 56.3291 17.6943C55.5912 17.7279 55.3695 17.7352 53.5005 17.7352C51.6314 17.7352 51.4099 17.7279 50.672 17.6943C49.9895 17.6628 49.619 17.5488 49.3722 17.453C49.0455 17.3261 48.8121 17.1744 48.5671 16.9294C48.3221 16.6844 48.1705 16.4517 48.0433 16.1249C47.9475 15.8785 47.8333 15.508 47.8023 14.8255C47.7687 14.0876 47.762 13.8659 47.762 11.9967C47.762 10.1273 47.7687 9.90685 47.8023 9.1689C47.8334 8.48641 47.9475 8.11601 48.0433 7.86927C48.1702 7.54257 48.3221 7.30927 48.5671 7.06427C48.8121 6.81927 49.0455 6.66757 49.3722 6.54043C49.6189 6.44418 49.9895 6.33043 50.672 6.29904C51.3177 6.26989 51.568 6.26114 52.8726 6.25966V6.26141C52.9945 6.26125 53.1256 6.2613 53.2671 6.26136ZM56.3971 8.26345C56.3971 7.79954 56.7733 7.42373 57.2371 7.42373V7.42346C57.7008 7.42346 58.0771 7.7997 58.0771 8.26345C58.0771 8.7272 57.7008 9.10344 57.2371 9.10344C56.7733 9.10344 56.3971 8.7272 56.3971 8.26345ZM53.5004 8.4052C51.5152 8.40525 49.9057 10.0148 49.9057 12C49.9057 13.9852 51.5153 15.5941 53.5005 15.5941C55.4858 15.5941 57.0947 13.9852 57.0947 12C57.0947 10.0147 55.4856 8.4052 53.5004 8.4052ZM55.8339 12C55.8339 10.7112 54.7891 9.66667 53.5005 9.66667C52.2118 9.66667 51.1672 10.7112 51.1672 12C51.1672 13.2886 52.2118 14.3333 53.5005 14.3333C54.7891 14.3333 55.8339 13.2886 55.8339 12Z" fill="#FAFBFC"/>
</g>
<g clip-path="url(#clip0_49_70)">
<path d="M33.5 13C33.5 19.6274 28.1274 25 21.5 25C14.8726 25 9.5 19.6274 9.5 13C9.5 6.37258 14.8726 1 21.5 1C28.1274 1 33.5 6.37258 33.5 13Z" fill="#9D4EDD"/>
</g>
<path fill-rule="evenodd" clip-rule="evenodd" d="M26.7896 7.26075C25.3262 5.80399 23.3817 5 21.3107 5C17.042 5 13.5658 8.45791 13.5658 12.7072C13.5633 14.0657 13.9203 15.3914 14.5988 16.5608L13.5 20.5556L17.6066 19.4819C18.7358 20.0969 20.0119 20.4195 21.3082 20.422H21.3107C25.5794 20.422 29.053 16.9641 29.0556 12.7122C29.0556 10.6531 28.2504 8.71751 26.7896 7.26075ZM21.3107 19.119H21.3082C20.1536 19.119 19.0194 18.809 18.032 18.2268L17.7965 18.0881L15.3584 18.7233L16.009 16.3592L15.8571 16.1172C15.2115 15.0965 14.8723 13.917 14.8723 12.7072C14.8723 9.17621 17.7611 6.30302 21.3132 6.30302C23.0323 6.30302 24.6476 6.97091 25.8629 8.18067C27.0782 9.39296 27.7466 11.0009 27.7466 12.7122C27.7466 16.2458 24.8578 19.119 21.3107 19.119ZM24.8401 14.3202C24.6476 14.2245 23.6957 13.7582 23.5184 13.6952C23.3412 13.6297 23.2121 13.5994 23.083 13.791C22.9538 13.985 22.5842 14.4185 22.4703 14.5471C22.3589 14.6731 22.2449 14.6907 22.0525 14.5949C21.8576 14.4992 21.2347 14.295 20.4954 13.6372C19.9207 13.1281 19.5308 12.4955 19.4194 12.304C19.3055 12.1099 19.4068 12.0066 19.503 11.9108C19.5916 11.8251 19.6979 11.6865 19.7941 11.5731C19.8903 11.4622 19.9232 11.3815 19.9891 11.253C20.0524 11.1244 20.0195 11.011 19.9714 10.9152C19.9232 10.8195 19.5359 9.8693 19.3738 9.48369C19.2169 9.10816 19.0574 9.16109 18.9384 9.15352C18.827 9.14848 18.6978 9.14848 18.5687 9.14848C18.4396 9.14848 18.2295 9.19637 18.0522 9.39044C17.875 9.58198 17.3762 10.0482 17.3762 10.9959C17.3762 11.9435 18.07 12.8609 18.1662 12.9895C18.2624 13.1155 19.5308 15.0612 21.4727 15.8954C21.9335 16.0945 22.293 16.213 22.5741 16.3012C23.0374 16.4474 23.4602 16.4272 23.7944 16.3793C24.1666 16.3239 24.9388 15.9131 25.1008 15.4619C25.2603 15.0133 25.2603 14.6277 25.2122 14.5471C25.1641 14.4664 25.035 14.4185 24.8401 14.3202Z" fill="white"/>
<defs>
<clipPath id="clip0_49_70">
<rect width="24" height="24" fill="white" transform="translate(9.5 1)"/>
</clipPath>
</defs>
</svg>
